<svg width="20" height="20" viewBox="0 0 20 20" fill="none" xmlns="http://www.w3.org/2000/svg"><path d="M4.688 9.219a2.031 2.031 0 100 4.062 2.031 2.031 0 000-4.062zm0 2.969a.938.938 0 110-1.876.938.938 0 010 1.876zm11.25-2.969a2.031 2.031 0 100 4.062 2.031 2.031 0 000-4.062zm0 2.969a.937.937 0 110-1.875.937.937 0 010 1.874z" fill="#0033EB"/><path d="M18.648 7.54L15 6.876l-3.106-2.577a1.723 1.723 0 00-1.092-.392H6.226a1.71 1.71 0 00-1.342.645L2.9 6.875H1.563A1.408 1.408 0 00.155 8.281V10a1.72 1.72 0 001.719 1.719h.357a2.5 2.5 0 114.91 0h6.34a2.5 2.5 0 114.91 0h.046a1.408 1.408 0 001.406-1.406V8.93a1.399 1.399 0 00-1.196-1.39zM7.031 6.407a.469.469 0 01-.468.469H4.502a.234.234 0 01-.178-.387l1.363-1.597a.469.469 0 01.357-.164h.519a.469.469 0 01.468.468v1.211zm2.344 2.188H8.75a.469.469 0 110-.938h.625a.469.469 0 010 .938zm3.69-1.708l-4.472-.01a.469.469 0 01-.468-.469V5.195a.469.469 0 01.469-.468h2.248a.47.47 0 01.29.1l2.08 1.641a.235.235 0 01-.146.418z" fill="#0033EB"/></svg>