<svg width="54" height="54" viewBox="0 0 54 54" fill="none" xmlns="http://www.w3.org/2000/svg"><circle cx="27.5" cy="26.5" r="26" stroke="#C2C2C2"/><mask id="path-2-inside-1" fill="#fff"><path d="M54 27A27 27 0 0027 0v1.582A25.417 25.417 0 0152.418 27H54z"/></mask><path d="M54 27A27 27 0 0027 0v1.582A25.417 25.417 0 0152.418 27H54z" stroke="#0033EB" stroke-width="4" mask="url(#path-2-inside-1)"/><path d="M29.37 20.185a.74.74 0 00-.98 0 .594.594 0 000 .894l5.247 4.787H19.695c-.384 0-.695.284-.695.634 0 .35.311.635.695.635H33.63l-5.247 4.787a.605.605 0 00-.204.447c0 .168.074.328.204.447.13.12.308.186.493.184a.748.748 0 00.493-.184l6.43-5.865a.601.601 0 000-.9l-6.43-5.866z" fill="#0033EB"/></svg>