<svg width="34" height="34" viewBox="0 0 34 34" fill="none" xmlns="http://www.w3.org/2000/svg">
<path d="M23.0265 10.9735C21.4974 9.44444 19.3387 8.45502 17.0001 8.45502C14.6614 8.45502 12.5027 9.39946 10.9736 10.9735C9.4445 12.5026 8.45508 14.6614 8.45508 17C8.45508 19.3386 9.4445 21.4973 10.9736 23.0264C12.5027 24.5555 14.6614 25.545 17.0001 25.545C19.3387 25.545 21.4974 24.6005 23.0265 23.0264C24.5556 21.4973 25.545 19.3386 25.545 17C25.545 14.6614 24.6006 12.5026 23.0265 10.9735ZM21.4075 21.4074C20.2831 22.5317 18.709 23.2063 17.0001 23.2063C15.2911 23.2063 13.717 22.5317 12.5926 21.4074C11.4683 20.2831 10.7937 18.709 10.7937 17C10.7937 15.291 11.4683 13.7169 12.5926 12.5926C13.717 11.4682 15.2911 10.7936 17.0001 10.7936C18.709 10.7936 20.2831 11.4682 21.4075 12.5926C22.5318 13.7169 23.2064 15.291 23.2064 17C23.2064 18.709 22.5318 20.2831 21.4075 21.4074Z" fill="#898989"/>
<path d="M32.8315 15.8306H29.3685C28.7389 15.8306 28.1992 16.3703 28.1992 16.9999C28.1992 17.6296 28.7389 18.1693 29.3685 18.1693H32.8315C33.4611 18.1693 34.0008 17.6296 34.0008 16.9999C34.0008 16.3703 33.4611 15.8306 32.8315 15.8306Z" fill="#898989"/>
<path d="M16.9994 28.1984C16.3698 28.1984 15.8301 28.738 15.8301 29.3677V32.8306C15.8301 33.4603 16.3698 34 16.9994 34C17.629 34 18.1687 33.4603 18.1687 32.8306V29.3677C18.1687 28.738 17.629 28.1984 16.9994 28.1984Z" fill="#898989"/>
<path d="M29.008 27.3889L26.5345 24.9154C26.1297 24.4656 25.3652 24.4656 24.9154 24.9154C24.4657 25.3651 24.4657 26.0847 24.9154 26.5344L27.389 29.008C27.8387 29.4577 28.5583 29.4577 29.008 29.008C29.4578 28.5582 29.4578 27.8386 29.008 27.3889Z" fill="#898989"/>
<path d="M16.9994 0C16.3698 0 15.8301 0.539682 15.8301 1.16931V4.63227C15.8301 5.2619 16.3698 5.80159 16.9994 5.80159C17.629 5.80159 18.1687 5.2619 18.1687 4.63227V1.16931C18.1687 0.539682 17.629 0 16.9994 0Z" fill="#898989"/>
<path d="M29.0529 4.99203C28.6032 4.54229 27.8836 4.54229 27.4339 4.99203L24.9603 7.46557C24.5106 7.9153 24.5106 8.63488 24.9603 9.08462C25.3651 9.53435 26.1297 9.53435 26.5794 9.08462L29.0529 6.61107C29.5027 6.16134 29.5027 5.44176 29.0529 4.99203Z" fill="#898989"/>
<path d="M4.63227 15.8306H1.16931C0.539682 15.8306 0 16.3703 0 16.9999C0 17.6296 0.494709 18.1693 1.16931 18.1693H4.63227C5.2619 18.1693 5.80159 17.6296 5.80159 16.9999C5.80159 16.3703 5.2619 15.8306 4.63227 15.8306Z" fill="#898989"/>
<path d="M9.03927 24.9154C8.63451 24.4656 7.86996 24.4656 7.42022 24.9154L4.94668 27.3889C4.49694 27.8386 4.49694 28.5582 4.94668 29.008C5.39641 29.4577 6.11599 29.4577 6.56572 29.008L9.03927 26.5344C9.48901 26.0847 9.48901 25.3651 9.03927 24.9154Z" fill="#898989"/>
<path d="M9.03927 7.46557L6.56572 4.99203C6.11599 4.54229 5.39641 4.54229 4.94668 4.99203C4.49694 5.44176 4.49694 6.16134 4.94668 6.61107L7.42022 9.08462C7.86996 9.53435 8.58953 9.53435 9.03927 9.08462C9.48901 8.63488 9.48901 7.9153 9.03927 7.46557Z" fill="#898989"/>
</svg>
