<svg width="34" height="34" viewBox="0 0 34 34" fill="none" xmlns="http://www.w3.org/2000/svg">
<path d="M33.8949 22.0147C33.6709 21.4683 33.1437 21.1381 32.5861 21.1374C32.5832 21.1374 32.5804 21.1367 32.5776 21.1367C32.5684 21.1367 32.5606 21.1402 32.5513 21.141C32.4422 21.1438 32.3331 21.1615 32.2247 21.1906C32.1843 21.2012 32.146 21.2118 32.107 21.2253C32.0872 21.2324 32.0667 21.2352 32.0461 21.243C30.2682 21.9736 28.3798 22.3442 26.4318 22.3442C18.285 22.3442 11.6567 15.7159 11.6567 7.56902C11.6567 5.62106 12.0266 3.73263 12.7578 1.95473C12.7685 1.92993 12.772 1.90371 12.7805 1.8782C12.7911 1.84703 12.8004 1.81585 12.8089 1.78325C12.8407 1.66633 12.8606 1.5487 12.862 1.43107C12.862 1.42611 12.8641 1.42115 12.8641 1.41548C12.8641 1.41407 12.8634 1.41194 12.8634 1.41052C12.8634 1.32549 12.8535 1.24188 12.8379 1.15968C12.8344 1.14196 12.8315 1.12425 12.828 1.10653C12.8096 1.02504 12.7862 0.944261 12.7536 0.867731C12.7408 0.83797 12.7231 0.81246 12.7089 0.784116C12.5608 0.488627 12.3157 0.239906 11.9855 0.104562C11.5993 -0.0534572 11.1862 -0.0251129 10.8375 0.14141C10.834 0.142827 10.8297 0.143535 10.8262 0.145661C8.70815 1.01654 6.79633 2.29486 5.14386 3.94733C-1.71474 10.8144 -1.71474 21.9877 5.14457 28.8563C8.57848 32.2859 13.0881 34 17.5983 34C22.1086 34 26.6189 32.2852 30.0535 28.8556C31.7003 27.208 32.9765 25.3026 33.8474 23.1917C33.8516 23.1839 33.8531 23.1747 33.8566 23.1662C33.897 23.0818 33.9296 22.994 33.953 22.9026C33.9544 22.8955 33.9572 22.8891 33.9593 22.882C34.0267 22.6028 34.0125 22.3009 33.8949 22.0147ZM28.051 26.8516C22.2879 32.6062 12.9116 32.6062 7.14993 26.8516C1.39463 21.0892 1.39463 11.713 7.14922 5.95127C7.76429 5.3362 8.42896 4.79412 9.12552 4.30589C8.9257 5.37447 8.82224 6.4636 8.82224 7.56973C8.82224 17.2798 16.7218 25.1793 26.4318 25.1793C27.5372 25.1793 28.6271 25.0758 29.6957 24.876C29.2067 25.5719 28.6661 26.2365 28.051 26.8516Z" fill="#0033EB"/>
</svg>
