<svg width="20" height="20" viewBox="0 0 20 20" fill="none" xmlns="http://www.w3.org/2000/svg"><path d="M5.272 10.652h2.192v9.025c0 .179.145.323.323.323h3.717a.322.322 0 00.322-.323v-8.982h2.52a.323.323 0 00.321-.286l.383-3.323a.322.322 0 00-.32-.36h-2.903V4.645c0-.628.338-.947 1.005-.947h1.897a.323.323 0 00.323-.322V.325a.323.323 0 00-.322-.323h-2.616L11.994 0c-.454 0-2.032.09-3.278 1.236-1.38 1.27-1.189 2.791-1.143 3.055v2.436H5.272a.323.323 0 00-.323.322v3.28c0 .178.145.323.323.323z" fill="#0033EB"/></svg>