<svg width="217" height="63" viewBox="0 0 217 63" fill="none" xmlns="http://www.w3.org/2000/svg"><path fill-rule="evenodd" clip-rule="evenodd" d="M12.89 11.078C2.28 19.822-1.766 33.306 4.182 45.668c5.948 12.362 18.45 18.05 31.911 15.203l-.005.001-.005.002h-.005l-.005.001-.005.001-.005.002h-.004l-.005.002h-.005l-.005.002h-.005l-.005.002h-.005l-.005.002-.01.002h-.005l-.005.002H36l-.005.002-.005.001-.005.001-.004.001-.005.001-.005.001-.005.001-.005.001-.005.001-.005.001-.005.001-.005.001-.005.001-.005.001-.005.001-.005.001-.005.001-.005.001-.004.001-.005.001H35.9l-.003.001-.005.001-.005.002h-.005l-.005.001-.005.001-.005.001-.005.002h-.005l-.005.001-.005.001-.005.002h-.005l-.005.001-.004.001-.005.002h-.005l-.005.002h-.005l-.005.002h-.005l-.005.002h-.005l-.005.001-.005.002c.498-.05.196-.037 1.569-.134 1.372-.097 4.856-.151 7.411.085 2.556.235 5.006.752 7.457.839 2.45.086 4.354.237 6.063-.902 1.708-1.138 2.674-3.07 2.968-5.21.293-2.139-.148-4-.32-5.931a33.46 33.46 0 01-.026-5.338c.113-1.463.41-3.369.584-4.198.176-.83.146-.658.225-.98l-.02.06c2.869-8.564 2.55-14.776-4.636-25.706C49.866 2.592 25.608 1.01 17.519 6.466c-8.09 5.456-2.932 2.7-4.63 4.612zm24.264 49.548h.01l-.005.001-.012.003-.011.003-.012.003-.005.001-.006.002-.012.003-.011.002-.012.003-.012.003-.011.003-.012.003-.011.002-.012.003-.011.003-.012.003-.011.003-.012.002-.023.006-.012.003-.011.003-.012.002-.011.003-.012.003-.011.002-.007.002-.005.001-.01.002.294-.073zm22.41-16.498l.002-.004-.002.004zm-22.94 16.626l-.01.003-.012.003-.011.002-.012.003-.011.002-.012.003-.011.003-.011.002-.012.003-.011.002h-.001l-.01.003-.012.002-.011.003-.012.003-.011.002-.012.003-.148.032-.011.003-.011.002-.006.001-.006.002-.011.002-.012.003-.011.002-.011.002-.012.003-.011.002-.011.003-.012.002-.011.003-.023.005-.012.002-.01.002.01-.002.012-.002.023-.005.011-.003.012-.002.01-.003.012-.002.012-.002.011-.003.011-.002.03-.007h.005l.01-.003.012-.003.012-.002.011-.003.011-.002.012-.003.068-.015.012-.002.011-.003.011-.002.012-.003.011-.002.16-.037zm25.01-21.364l.008-.022-.008.022zm-.096.279l.007-.022-.007.022zm-.076.214l.007-.021-.008.021zm-.032.086l.005-.012-.005.012zm0 0l-.007.021.007-.021zm-.023.064l.008-.022-.008.022zm-.023.064l.007-.022-.007.022zm0 0l-.008.021.008-.021zm-.008.021l-.008.022.008-.022zm-.008.022l-.008.02.008-.02zm-.024.064l.008-.022-.008.022zm-.016.042l.008-.021-.008.021zm-.056.15l.008-.022-.008.021zm-.016.042l.008-.021-.008.02zm-.163.418l-.004.01-.005.011-.004.01-.004.01-.004.011-.004.01-.004.01-.005.011-.004.01-.004.011-.004.01-.004.01-.009.022-.004.01-.02.052-.004.007-.001.003-.004.01-.005.011-.004.01-.008.021.008-.02.1-.25zm-.122.301l-.004.01-.005.011v.004l-.004.006-.004.01-.004.011-.005.01-.004.01-.004.011-.005.01-.004.01-.004.011-.004.01-.005.011.005-.01.004-.01.004-.011.005-.01.004-.01.004-.011.03-.073zm-.164.393l.016-.038-.016.038zm0 0l-.018.042-.013.03-.006.012-.018.042.018-.042.037-.084zm-.055.126l-.018.042.018-.042zm-.054.127l-.017.039-.002.003.002-.003.017-.04zm-.019.042l-.018.042.018-.042zm-.037.084l-.019.042-.018.042-.019.042-.002.005-.017.037-.019.041.02-.041.037-.084.037-.084zm-.112.251l.004-.01-.004.01zm-.02.042l-.018.042-.007.014-.013.028-.019.041-.018.04v.002l-.02.042-.02.042-.01.023-.009.018.02-.041.019-.042.02-.042.076-.167zm-.018.042l-.007.014-.013.028.02-.042zm-.116.25l-.02.042.02-.042zm-.04.083l-.002.007-.017.035-.02.042-.015.032-.004.01-.02.04-.02.042-.007.016-.013.026-.02.041-.02.04v.002l-.02.04.04-.082.02-.041.119-.25zm-.038.084l-.016.032.016-.032zm-.04.083l-.02.041-.007.016.027-.057zm-.1.207l-.02.041-.012.024-.008.017-.02.042-.021.041-.004.008-.016.033.016-.033.004-.008.02-.041.061-.124zm-.02.041l-.012.024-.008.017.02-.04zm-.082.166l-.02.04.02-.04zm-.04.082l-.021.041-.02.041-.01.017-.012.024-.02.041-.021.041-.021.041-.021.041-.042.082-.022.041-.004.01-.017.031-.021.04v.001l-.018.034-.004.007-.021.04-.022.041-.009.018-.012.023-.022.04.022-.04.012-.023.01-.018.021-.04.022-.041.273-.533zm-.384.742l.002-.004-.002.004zm-.022.04l.005-.01-.005.01zm-.032.061l.005-.01-.005.01zm-.006.01l.005-.009-.005.01zm0 0l-.005.01.005-.01zM36.306 60.826l.011-.003.011-.002-.022.005zm.034-.008l.011-.002.012-.003.011-.002.011-.003h.003l.009-.002.011-.003.012-.002.011-.003-.091.02zm.148-.032l.011-.003.01-.002h.002l.011-.003.012-.003.011-.002.011-.003.012-.003.011-.002.011-.003.012-.002.011-.003.012-.003-.137.032zm-.011.002l-.012.003.012-.003zm23.1-16.684zm.006-.01l.005-.01-.005.01zm.005-.01l.006-.011-.006.01zm.006-.011l.005-.01-.005.01zm.005-.01l.006-.01-.006.01zm.006-.01l.005-.01-.005.01zm.01-.02l.006-.01-.006.01zm.006-.01l.005-.01-.005.01zm.005-.01l.006-.01-.006.01zm.008-.015l.003-.006-.003.006zm.003-.006l.005-.01-.005.01zm.005-.01l.006-.01-.006.01zm.006-.01l.005-.01-.005.01zm.137-.26l.017-.033.004-.009.022-.04.042-.083.02-.04.021-.041-.126.245zm.148-.288l.02-.04.013-.025.008-.017.02-.041.022-.041-.083.164zm.601-1.254l.014-.031-.014.03zm.289-.658l.002-.004-.002.004zm.002-.004l.018-.043-.018.043zm.018-.043l.017-.042-.017.042zm.017-.042l.01-.02-.01.02zm.01-.02l.008-.022-.009.021zm.008-.022l.018-.042-.018.042zm.018-.042l.017-.043-.017.043zm-.254.59l-.019.042.02-.042zm-.131.293l-.02.042.02-.042zm-.058.125l-.018.04.018-.04zm-.116.25l-.003.007.003-.007zm-.02.042l-.02.042.02-.042zm-.04.083l-.019.042.02-.042zm-.119.249l-.02.041.02-.041zm-.394.78l-.018.035.018-.034zm1.181-2.532l.005-.01.004-.01.004-.01-.013.03zm.016-.038l.002-.003.004-.01.004-.01-.01.023zm.035-.086l.005-.01.005-.014.003-.007.004-.01.005-.01.012-.032-.034.083zm.038-.093l.009-.021.004-.01.004-.01.017-.042.004-.01-.038.093zm.042-.104l.004-.01.005-.01.004-.011.004-.01-.017.04zm.188-.481l.005-.013-.005.013zm.005-.013l.003-.009-.003.01zm.011-.03l.008-.021-.008.021zm.008-.021l.008-.022-.008.022zm.008-.022l.008-.02-.008.02zm.008-.02l.007-.018-.007.017zm.007-.018l.001-.004-.001.004zm.001-.004l.008-.022-.008.022zm.008-.022l.008-.02-.008.02zm.016-.042l.008-.021-.008.02zm.016-.043v-.001.001zm0-.001l.008-.02-.008.02zm.04-.105l.002-.007-.003.006zm.002-.007l.005-.015-.005.015zm.005-.015l.008-.021-.008.021zm.016-.043l.008-.021-.008.021zm.02-.054l.003-.01-.003.01zm.003-.01l.008-.021-.008.021zm.008-.021l.008-.022-.008.022zm.008-.022l.007-.02-.007.02zm.015-.042l.006-.017-.006.017zm.006-.017l.002-.005-.002.005zm.002-.005l.007-.021-.007.021zm.007-.021l.008-.022-.008.022zm.008-.022l.008-.02-.008.02zm.008-.02l.007-.022-.007.021zm.007-.022l.008-.022-.008.022zm.008-.022zm0 0l.008-.021-.008.02zm.008-.021l.007-.022-.008.022zm.007-.022l.008-.021-.008.021zm.015-.043l.008-.021-.008.021zm.008-.021l.002-.006-.002.006zm.002-.006l.005-.015-.005.015zm.005-.015l.008-.022-.008.022zm.008-.022l.007-.021-.007.021zm.007-.021l.008-.022-.008.022zm.008-.022l.007-.021-.007.021zm.007-.021l.004-.012-.004.012zm.004-.012l.003-.01-.003.01zm.003-.01l.008-.021-.008.021zm.008-.021l.007-.022-.007.022zm.007-.022l.008-.021-.008.021zm.008-.021l.007-.022-.007.022zm.007-.022l.006-.016-.006.016zm.006-.016l.001-.005-.001.005zm.009-.027l.007-.021-.007.021zm.007-.021l.007-.022-.007.022zm.007-.022l.008-.021-.008.021zm.008-.021l.007-.022-.008.022zm.007-.022zm0 0l.007-.021-.007.02zm.007-.021l.007-.022-.007.022zM24.373 10.367c2.58-.59 5.312-.94 7.77-.998 2.46-.057 4.931.176 6.586.551 1.655.375 2.78.891 3.646 1.371.865.48 1.473.924 2.08 1.368.3.235.411.309.96.806.55.496 1.578 1.561 2.507 2.93.929 1.37 1.973 3.237 3.023 5.709 1.051 2.472 2.176 5.844 2.781 8.484.605 2.64.685 5.317.775 7.335-.501 1.127-.757 1.718-1.613 3.354-.855 1.635-2.336 4.038-3.522 5.631s-2.764 3.297-3.791 4.234c-1.028.937-1.322 1.151-2.047 1.7-.378.162.197-.043-1.18.473-1.375.516-5.223 1.76-7.766 2.3-2.544.54-5.897 1.224-6.984 1.296-1.086.072-.445.027-.663.037-1.265-.556-1.677-.7-3.605-1.867-1.927-1.168-5.114-4.04-6.866-5.779-1.752-1.739-3.232-3.436-4.62-5.35-1.387-1.914-2.655-3.92-3.668-6.388-.06-.445.002.542-.147-1.367-.149-1.91-.142-7.671.929-11.326 1.07-3.655 3.91-8.475 4.954-9.965 1.044-1.49.458-.64.69-.945.688-.387.686-.423 2.163-1.117 1.478-.694 5.027-1.887 7.607-2.477z" fill="#0033EB"/><path fill-rule="evenodd" clip-rule="evenodd" d="M8.422 47.393C.758 35.736 2.33 20.53 11.342 10.388c-10.61 8.745-14.5 23.407-8.553 35.765 7.053 14.659 25.273 20.525 40.697 13.103a32.958 32.958 0 003.126-1.718c-1.103.594-2.303 1.051-3.44 1.422A30.141 30.141 0 0128.3 60.278c-7.873-1.29-15.162-5.712-19.878-12.885z" fill="url(#paint0_linear)"/><path fill-rule="evenodd" clip-rule="evenodd" d="M11.342 10.388C2.331 20.53.758 35.736 8.422 47.393c4.716 7.173 12.005 11.596 19.877 12.885.989.087 1.977.175 3.095.157-.836-.083-1.72-.23-2.693-.468a26.992 26.992 0 01-7.015-2.848 24.27 24.27 0 01-2.508-1.694 26.396 26.396 0 01-3.804-3.591c-1.846-2.12-3.41-4.566-4.656-7.17C9.646 42.42 8.81 40.061 8.43 37.31a22.74 22.74 0 01-.446-1.18c-1.03-2.968-1.493-6.36-1.47-9.172.021-2.495.425-4.534 1.103-6.499a23.927 23.927 0 01.59-1.537c.81-1.927 1.881-3.803 3.24-5.456 1.543-1.876 3.459-3.462 5.913-4.877 2.454-1.414 5.448-2.656 8.101-3.343a23.77 23.77 0 015.788-.765c2.05-.325 4.217-.405 6.393-.128 3.397.433 6.813 1.737 9.419 3.098 2.605 1.36 4.4 2.778 6.121 4.48 1.72 1.7 3.367 3.684 4.532 5.647 1.166 1.962 1.85 3.901 2.283 6.288.434 2.387.616 5.221.136 8.706-.114.82-.264 1.677-.443 2.549a56.183 56.183 0 01-2.386 8.245l-.005.016a30.88 30.88 0 01-.48 1.28 23.189 23.189 0 01-1.34 2.808 32.94 32.94 0 01-1.828 3.09c-1.163 1.743-2.213 2.986-3.274 4.06a20.76 20.76 0 01-1.374 1.276c11.424-8.619 15.783-23.85 9.638-36.62C51.588 4.616 33.368-1.249 17.944 6.172a32.569 32.569 0 00-6.602 4.215z" fill="url(#paint1_linear)"/><path fill-rule="evenodd" clip-rule="evenodd" d="M16.719 49.05c-1.752-1.74-3.131-3.299-4.62-5.351-1.287-1.776-2.655-3.92-3.667-6.388.379 2.75 1.215 5.11 2.288 7.352 1.245 2.605 2.81 5.052 4.655 7.17a26.39 26.39 0 003.804 3.593c1.029.244 2.058.489 3.418.653a26.83 26.83 0 004.34.152 31.255 31.255 0 01-3.604-1.866c-2.737-1.658-4.862-3.577-6.614-5.316z" fill="url(#paint2_linear)"/><path fill-rule="evenodd" clip-rule="evenodd" d="M26.936 56.231a26.776 26.776 0 01-4.34-.152c-1.36-.164-2.39-.409-3.418-.654a24.272 24.272 0 002.508 1.694 26.991 26.991 0 007.015 2.848 19.28 19.28 0 002.693.468 17.677 17.677 0 001.743-.115c1.898-.219 4.225-.787 6.47-1.622a29.586 29.586 0 002.55-1.086c-.292.084-.588.163-.884.235-2.748.67-5.628.82-8.742.195a22.737 22.737 0 01-1.183-.27 29.032 29.032 0 01-4.412-1.54z" fill="#00EBA1"/><path fill-rule="evenodd" clip-rule="evenodd" d="M39.607 58.698c-2.245.836-4.571 1.403-6.47 1.622a17.55 17.55 0 01-1.742.115 20.33 20.33 0 002.83.07 36.769 36.769 0 004.92-.537c1.47-.26 2.678-.57 3.972-.99l.055-.018a30.595 30.595 0 003.675-1.57c.744-.471 1.463-.97 2.157-1.493.467-.394.921-.82 1.373-1.277 1.062-1.073 2.112-2.316 3.274-4.06a32.939 32.939 0 001.829-3.089 20.803 20.803 0 01-2.013 2.929c-1.281 1.572-2.747 2.983-4.788 4.284a25.443 25.443 0 01-6.521 2.928c-.826.4-1.682.763-2.55 1.086z" fill="#0033EB"/><path fill-rule="evenodd" clip-rule="evenodd" d="M32.531 58.042c3.114.624 5.993.475 8.741-.195.297-.073.592-.151.885-.235a23.4 23.4 0 003.633-2.154c1.776-1.301 3.164-2.8 4.403-4.518 1.238-1.719 2.328-3.657 3.028-5.594.054-.15.106-.301.156-.452a52.2 52.2 0 01-1.155 1.204c-1.348 1.365-2.778 2.69-4.395 3.861a23.276 23.276 0 01-4.585 2.596 29.416 29.416 0 01-2.844 1.902c-1.825 1.071-3.825 1.976-5.363 2.5-1.537.525-2.612.67-3.687.815.397.101.792.192 1.183.27z" fill="#F7C545"/><path fill-rule="evenodd" clip-rule="evenodd" d="M35.035 56.957c1.538-.524 3.538-1.429 5.363-2.5a29.406 29.406 0 002.844-1.902c-.378.162-.77.32-1.18.473-2.342.879-5.223 1.617-7.767 2.157-2.543.54-4.748.88-6.696 1.01-.225.015-.446.027-.663.036a29.032 29.032 0 004.412 1.54c1.074-.144 2.15-.289 3.687-.814z" fill="#7DC5FF"/><path fill-rule="evenodd" clip-rule="evenodd" d="M54.246 39.109c-.011 2.18-.277 3.996-.867 5.785a34.7 34.7 0 002.554-3.055 34.229 34.229 0 002.195-3.422l.004-.227c.036-2.26-.247-5.412-1.285-8.623l-.04.254c-.205 1.237-.51 2.538-1.223 4.47a56.89 56.89 0 01-1.368 3.345c.023.507.032.998.03 1.473z" fill="#002196"/><path fill-rule="evenodd" clip-rule="evenodd" d="M58.545 37.65c-.125.237-.265.495-.418.767-.06 2.261-.446 3.611-.9 4.883-.467 1.315-1.006 2.546-1.545 3.777a38.455 38.455 0 001.617-3.694l.006-.016a56.196 56.196 0 002.386-8.245l-.125.322c-.116.297-.303.77-.653 1.484a26.9 26.9 0 01-.367.721z" fill="#0033EB"/><path fill-rule="evenodd" clip-rule="evenodd" d="M56.845 29.567c.177-1.145.266-2.236.268-3.295a22.96 22.96 0 00-.215-3.084 17.434 17.434 0 00-.421-2.116 31.681 31.681 0 00-1.686-3.158c-.835-1.378-1.77-2.725-3.166-4.229a30.09 30.09 0 00-5.463-4.618C43.95 7.615 41.378 6.37 39.08 5.61c-2.297-.761-4.32-1.039-6.487-1.111-.442-.015-.89-.021-1.345-.016a25.415 25.415 0 00-3.323.76c-1.448.436-2.79.979-4.046 1.613 2.054-.396 4.16-.473 6.841.079 3.007.618 6.739 2.026 10.287 4.122a38.33 38.33 0 011.797 1.131 40.398 40.398 0 017.838 6.853c2.722 3.104 4.803 6.526 6.005 9.938.069.196.135.393.198.589z" fill="url(#paint3_linear)"/><path fill-rule="evenodd" clip-rule="evenodd" d="M14.856 14.371a25.489 25.489 0 014.115-4.295 26.092 26.092 0 014.909-3.221 26.014 26.014 0 00-5.992 1.969 21.69 21.69 0 00-5.504 3.803 15.238 15.238 0 00-1.83 2.082c-.414.585-.775 1.16-1.116 1.765a30.6 30.6 0 00-.964 1.876c-.09.19-.18.381-.268.573a25.595 25.595 0 00-.589 1.537 5.29 5.29 0 01.683-1.024c.579-.705 1.568-1.685 3.052-2.795a32.718 32.718 0 013.504-2.27z" fill="url(#paint4_linear)"/><path fill-rule="evenodd" clip-rule="evenodd" d="M56.847 29.567c1.038 3.211 1.32 6.362 1.285 8.623l-.005.227a33.4 33.4 0 00.787-1.49 26.39 26.39 0 00-.088-8.53c-.403-2.308-1.068-4.296-1.767-5.995-.19-.463-.384-.905-.58-1.33a17.411 17.411 0 01.422 2.116c.116.848.215 1.948.213 3.084a21.722 21.722 0 01-.267 3.295z" fill="url(#paint5_linear)"/><path fill-rule="evenodd" clip-rule="evenodd" d="M58.824 28.398a26.387 26.387 0 01.088 8.53c.35-.713.536-1.187.653-1.484l.124-.322c.18-.872.33-1.728.442-2.549.481-3.485.299-6.319-.135-8.706-.433-2.386-1.117-4.326-2.283-6.288-1.165-1.963-2.811-3.947-4.532-5.648-1.72-1.7-3.516-3.118-6.121-4.48-2.606-1.36-6.022-2.664-9.42-3.097-2.175-.277-4.343-.197-6.392.128.455-.005.903.001 1.345.016 2.167.072 4.19.35 6.487 1.11 2.297.762 4.869 2.007 7.082 3.46a30.082 30.082 0 015.463 4.618c1.395 1.503 2.33 2.85 3.165 4.228a31.692 31.692 0 012.267 4.488c.699 1.7 1.364 3.688 1.767 5.995z" fill="url(#paint6_linear)"/><path fill-rule="evenodd" clip-rule="evenodd" d="M56.647 28.978c-1.201-3.412-3.282-6.834-6.005-9.938a40.394 40.394 0 00-7.837-6.852l.214.153c.275.198.621.445 1.007.747.3.236.625.504.96.806.763.691 1.578 1.562 2.507 2.931.928 1.369 1.972 3.236 3.023 5.709 1.05 2.472 2.108 5.55 2.78 8.484.538 2.346.83 4.6.919 6.618a56.844 56.844 0 001.367-3.345c.712-1.932 1.018-3.232 1.223-4.47l.04-.254a23.975 23.975 0 00-.198-.589z" fill="url(#paint7_linear)"/><path fill-rule="evenodd" clip-rule="evenodd" d="M47.673 59.816c-1.183-.282-2.43-.57-3.712-.793a32.555 32.555 0 01-8.182 2.823 58.728 58.728 0 011.569-.133c2.194-.155 4.856-.202 7.411.034 2.556.235 5.006.753 7.456.839 2.45.086 4.901-.259 6.61-1.397 1.708-1.139 2.674-3.07 2.967-5.21.294-2.139-.086-4.485-.259-6.417a28.372 28.372 0 01-.025-4.913 32.36 32.36 0 01.584-4.198c.07-.331.146-.658.224-.98a31.075 31.075 0 01-3.291 6.91c.044.404.094.796.148 1.17.242 1.678.574 3.014.772 4.4.199 1.388.263 2.827.122 4.035-.14 1.209-.488 2.185-1.055 2.969-.567.783-1.354 1.373-2.41 1.7-1.056.325-2.38.387-3.887.206-1.507-.181-3.194-.605-5.042-1.045z" fill="url(#paint8_linear)"/><path fill-rule="evenodd" clip-rule="evenodd" d="M47.15 57.235c.758.31 1.481.707 2.225 1.055.923.432 1.878.789 2.772 1.034.894.246 1.727.38 2.528.364.8-.016 1.57-.183 2.114-.401.545-.219.865-.49 1.134-.848.27-.358.487-.802.555-1.518.069-.716-.012-1.704-.223-2.76-.21-1.057-.552-2.181-.9-3.28-.16-.51-.323-1.015-.476-1.54a31.277 31.277 0 01-9.729 7.893z" fill="url(#paint9_linear)"/><path d="M104.63 20.72c0 1.323-.309 2.55-.927 3.684a7.952 7.952 0 01-2.546 2.804l2.73 3.585-1.217.73-2.68-3.65a8.357 8.357 0 01-3.633.8c-1.498 0-2.879-.353-4.142-1.065a8.057 8.057 0 01-3.008-2.888 7.525 7.525 0 01-1.115-4c0-1.458.371-2.797 1.115-4.02a8.037 8.037 0 013.008-2.892c1.263-.712 2.644-1.066 4.142-1.066 1.506 0 2.89.354 4.154 1.066a8.098 8.098 0 013.008 2.892 7.626 7.626 0 011.111 4.02zm-15.185 0c0 1.238.31 2.373.927 3.396a6.688 6.688 0 002.52 2.423 7.01 7.01 0 003.465.884c1.26 0 2.417-.296 3.477-.884a6.682 6.682 0 002.516-2.423c.618-1.023.927-2.158.927-3.396a6.51 6.51 0 00-.927-3.408 6.731 6.731 0 00-2.516-2.443 7.005 7.005 0 00-3.477-.888c-1.252 0-2.41.296-3.466.889a6.737 6.737 0 00-2.519 2.442 6.508 6.508 0 00-.927 3.408zm34.966 7.977c-1.267 0-2.351-.224-3.243-.666-.895-.442-1.564-1.015-2.018-1.723-.45-.707-.677-1.45-.677-2.23h1.365c0 .592.184 1.153.556 1.684.371.53.903.954 1.6 1.277.696.323 1.502.484 2.417.484 1.482 0 2.628-.28 3.442-.842.814-.565 1.221-1.388 1.221-2.47 0-.976-.395-1.7-1.186-2.172-.79-.473-1.885-.8-3.281-.981a16.01 16.01 0 01-2.821-.62c-.825-.272-1.513-.692-2.069-1.265-.551-.569-.829-1.323-.829-2.261 0-.762.184-1.454.547-2.081.368-.627.963-1.13 1.78-1.515.818-.385 1.87-.574 3.161-.574 1.13 0 2.104.177 2.918.535.813.358 1.431.846 1.85 1.477.419.627.63 1.346.63 2.158h-1.354c0-.604-.16-1.123-.485-1.57-.324-.442-.794-.784-1.404-1.03-.61-.242-1.334-.366-2.167-.366-1.475 0-2.531.277-3.168.835-.638.554-.955 1.265-.955 2.13 0 .893.399 1.57 1.197 2.028.798.457 1.979.777 3.544.957a13.17 13.17 0 012.656.604c.79.273 1.455.712 1.999 1.312.544.6.813 1.4.813 2.4 0 .923-.238 1.723-.711 2.396-.474.67-1.166 1.189-2.074 1.546-.907.362-1.995.543-3.254.543zm15.095-15.628h1.158l6.368 8.212.011-.011 6.341-8.2h1.189v15.323h-1.353V15.254l-5.969 7.708h-.458l-5.938-7.708v13.139h-1.349V13.069zm36.718 15.324l-1.686-3.877h-8.445l-1.686 3.877h-1.432l6.67-15.324h1.341l6.681 15.324h-1.443zm-9.627-5.039h7.436l-3.665-8.438-.047-.17h-.011l-.047.17-3.666 8.438zM192.59 13.07c.962 0 1.819.193 2.578.581a4.269 4.269 0 011.768 1.639c.426.704.637 1.519.637 2.442 0 .762-.152 1.45-.453 2.07a4.171 4.171 0 01-1.264 1.538 4.63 4.63 0 01-1.893.823l3.943 6.23h-1.58l-3.759-6.038a5.713 5.713 0 01-.427.012h-4.733v6.027h-1.349V13.069h6.532zm0 8.135c.693 0 1.314-.146 1.866-.434a3.203 3.203 0 001.295-1.223c.313-.527.469-1.128.469-1.805 0-.665-.156-1.265-.473-1.788a3.283 3.283 0 00-1.318-1.23 4.03 4.03 0 00-1.886-.44h-5.136v6.92h5.183zm17.864-6.92h-5.179V13.07h11.724v1.216h-5.191v14.108h-1.354V14.285zM95.035 46.832h-1.518v3.398h-.754v-3.398h-1.53l-2.24 3.398h-.901l2.513-3.821-2.325-3.59h.838l2.105 3.325h1.54V42.82h.754v3.324h1.519l2.115-3.324h.838l-2.325 3.589 2.514 3.822h-.901l-2.242-3.399zm5.751-4.012h.764v6.14l4.692-6.14h.702v7.41h-.765V44.1l-4.692 6.13h-.701v-7.41zm15.636 0v7.41h-.764v-6.733h-3.54l-.084 2.478c-.035 1.023-.117 1.847-.246 2.472-.129.624-.327 1.09-.592 1.397-.265.307-.618.46-1.058.46-.188 0-.384-.024-.586-.074l.063-.698c.118.028.234.042.345.042a.906.906 0 00.749-.37c.192-.248.337-.63.435-1.15.097-.518.164-1.204.199-2.058l.105-3.176h4.974zm7.059 7.474a3.991 3.991 0 01-1.974-.492 3.57 3.57 0 01-1.382-1.35 3.766 3.766 0 01-.498-1.927c0-.713.166-1.355.498-1.927a3.568 3.568 0 011.382-1.35 3.991 3.991 0 011.974-.492c.727 0 1.381.163 1.964.487a3.582 3.582 0 011.377 1.35 3.76 3.76 0 01.503 1.932c0 .713-.167 1.357-.503 1.932a3.58 3.58 0 01-1.377 1.35c-.583.325-1.237.487-1.964.487zm0-.699a3.13 3.13 0 001.571-.397 2.854 2.854 0 001.1-1.1c.265-.47.398-.994.398-1.573s-.133-1.103-.398-1.572a2.854 2.854 0 00-1.1-1.101 3.131 3.131 0 00-1.571-.397c-.579 0-1.104.132-1.576.397a2.887 2.887 0 00-1.11 1.101c-.269.47-.403.993-.403 1.572 0 .579.134 1.103.403 1.572.269.47.639.837 1.11 1.101.472.265.997.397 1.576.397zm7.07-6.775h.765v6.14l4.692-6.14h.701v7.41h-.764V44.1l-4.692 6.13h-.702v-7.41zm3.058-.54c-.523 0-.937-.12-1.241-.36-.304-.24-.459-.576-.466-1.006h.576a.838.838 0 00.314.667c.203.162.475.244.817.244.335 0 .606-.082.812-.244a.83.83 0 00.319-.667h.576c-.007.43-.164.766-.471 1.006-.307.24-.719.36-1.236.36zm13.49 4.552h-1.676v3.398h-.754v-7.41h.754v3.324h1.676l2.482-3.324h.838l-2.723 3.6 2.88 3.81h-.89l-2.587-3.398zm9.248 3.462a3.991 3.991 0 01-1.974-.492 3.58 3.58 0 01-1.383-1.35 3.775 3.775 0 01-.497-1.927c0-.713.166-1.355.497-1.927a3.578 3.578 0 011.383-1.35 3.991 3.991 0 011.974-.492c.726 0 1.381.163 1.964.487a3.582 3.582 0 011.377 1.35 3.77 3.77 0 01.503 1.932c0 .713-.168 1.357-.503 1.932a3.58 3.58 0 01-1.377 1.35c-.583.325-1.238.487-1.964.487zm0-.699a3.13 3.13 0 001.571-.397 2.86 2.86 0 001.1-1.1c.265-.47.398-.994.398-1.573s-.133-1.103-.398-1.572a2.861 2.861 0 00-1.1-1.101 3.134 3.134 0 00-1.571-.397 3.16 3.16 0 00-1.576.397 2.873 2.873 0 00-1.11 1.101c-.269.47-.404.993-.404 1.572 0 .579.135 1.103.404 1.572.268.47.638.837 1.11 1.101a3.16 3.16 0 001.576.397zm14.684-6.775v7.41h-.744v-5.928l-2.88 4.986h-.367l-2.88-4.954v5.896h-.743v-7.41h.639l3.183 5.494 3.153-5.494h.639zm10.012 0v7.41h-.764v-6.733h-4.64v6.733h-.764v-7.41h6.168zm9.479 0v7.41h-.765v-6.733h-3.54l-.084 2.478c-.034 1.023-.117 1.847-.246 2.472-.129.624-.326 1.09-.591 1.397-.266.307-.618.46-1.058.46-.189 0-.384-.024-.587-.074l.063-.698c.119.028.234.042.346.042a.906.906 0 00.749-.37c.192-.248.336-.63.434-1.15.098-.518.164-1.204.199-2.058l.105-3.176h4.975zm9.028 6.733v.678h-5.184V42.82h5.027v.677h-4.252v2.636h3.791v.667h-3.791v2.753h4.409zm5.519-2.72h-1.675v3.398h-.754V42.82h.754v3.324h1.675l2.482-3.324h.838l-2.723 3.6 2.881 3.81h-.891l-2.587-3.398zm9.238 3.461c-.726 0-1.381-.162-1.964-.487a3.547 3.547 0 01-1.372-1.35 3.804 3.804 0 01-.497-1.932c0-.713.166-1.357.497-1.932a3.541 3.541 0 011.377-1.35 3.998 3.998 0 011.969-.487 4.04 4.04 0 011.509.276c.46.183.852.451 1.173.804l-.493.498c-.572-.586-1.295-.879-2.168-.879a3.16 3.16 0 00-1.581.402 2.924 2.924 0 00-1.116 1.101 3.085 3.085 0 00-.403 1.567c0 .579.135 1.101.403 1.567.269.466.641.833 1.116 1.1a3.158 3.158 0 001.581.403c.88 0 1.603-.296 2.168-.889l.493.498a3.166 3.166 0 01-1.179.81c-.464.186-.968.28-1.513.28z" fill="#0033EB"/><defs><linearGradient id="paint0_linear" x1="2.698" y1="26.964" x2="48.277" y2="65.931" gradientUnits="userSpaceOnUse"><stop stop-color="#2A9CFA"/><stop offset="1" stop-color="#0033EB"/></linearGradient><linearGradient id="paint1_linear" x1="12.792" y1="11.099" x2="44.217" y2="67.339" gradientUnits="userSpaceOnUse"><stop stop-color="#0033EB"/><stop offset="1" stop-color="#002196"/></linearGradient><linearGradient id="paint2_linear" x1="11.037" y1="37.677" x2="27.57" y2="57.709" gradientUnits="userSpaceOnUse"><stop stop-color="#FFED00"/><stop offset="1" stop-color="#F7C545"/></linearGradient><linearGradient id="paint3_linear" x1="32.088" y1="4.48" x2="54.605" y2="32.691" gradientUnits="userSpaceOnUse"><stop stop-color="#0077D9"/><stop offset="1" stop-color="#002196"/></linearGradient><linearGradient id="paint4_linear" x1="23.378" y1="6.855" x2="10.849" y2="20.878" gradientUnits="userSpaceOnUse"><stop stop-color="#2A9CFA"/><stop offset="1" stop-color="#00EBA1"/></linearGradient><linearGradient id="paint5_linear" x1="58.107" y1="25.351" x2="58.827" y2="46.687" gradientUnits="userSpaceOnUse"><stop stop-color="#00EBA1"/><stop offset="1" stop-color="#0033EB"/></linearGradient><linearGradient id="paint6_linear" x1="41.065" y1="4.33" x2="69.45" y2="37.607" gradientUnits="userSpaceOnUse"><stop stop-color="#00D6D6"/><stop offset="1" stop-color="#0033EB"/></linearGradient><linearGradient id="paint7_linear" x1="53.321" y1="15.716" x2="66.653" y2="36.786" gradientUnits="userSpaceOnUse"><stop stop-color="#FFD900"/><stop offset="1" stop-color="#EF7F1A"/></linearGradient><linearGradient id="paint8_linear" x1="60.645" y1="45.819" x2="68.478" y2="63.281" gradientUnits="userSpaceOnUse"><stop stop-color="#0033EB"/><stop offset="1" stop-color="#2A9CFA"/></linearGradient><linearGradient id="paint9_linear" x1="47.15" y1="49.342" x2="59.032" y2="62.704" gradientUnits="userSpaceOnUse"><stop stop-color="#7DC5FF"/><stop offset="1" stop-color="#0033EB"/></linearGradient></defs></svg>