<svg width="34" height="34" viewBox="0 0 34 34" fill="none" xmlns="http://www.w3.org/2000/svg"><path d="M23.026 10.973C21.497 9.444 19.34 8.456 17 8.456a8.388 8.388 0 00-6.026 2.518c-1.53 1.53-2.519 3.688-2.519 6.027s.99 4.497 2.519 6.026c1.529 1.53 3.687 2.519 6.026 2.519a8.388 8.388 0 006.026-2.519c1.53-1.529 2.519-3.687 2.519-6.026a8.388 8.388 0 00-2.519-6.027zm-1.619 10.434a6.221 6.221 0 01-4.407 1.8 6.221 6.221 0 01-4.407-1.8 6.22 6.22 0 01-1.8-4.407 6.22 6.22 0 011.8-4.407 6.22 6.22 0 014.407-1.8 6.22 6.22 0 014.407 1.8 6.22 6.22 0 011.8 4.407 6.22 6.22 0 01-1.8 4.407zm11.424-5.577h-3.463c-.63 0-1.169.54-1.169 1.17 0 .63.54 1.17 1.17 1.17h3.462c.63 0 1.17-.54 1.17-1.17 0-.63-.54-1.17-1.17-1.17zM17 28.198c-.63 0-1.17.54-1.17 1.17v3.463c0 .63.54 1.169 1.17 1.169.629 0 1.169-.54 1.169-1.17v-3.462c0-.63-.54-1.17-1.17-1.17zm12.008-.809l-2.473-2.474c-.405-.45-1.17-.45-1.62 0a1.14 1.14 0 000 1.62l2.474 2.473c.45.45 1.17.45 1.619 0 .45-.45.45-1.17 0-1.62zM17 0c-.63 0-1.17.54-1.17 1.17v3.462c0 .63.54 1.17 1.17 1.17.629 0 1.169-.54 1.169-1.17V1.17c0-.63-.54-1.169-1.17-1.169zm12.053 4.992a1.14 1.14 0 00-1.62 0L24.96 7.466a1.14 1.14 0 000 1.619c.405.45 1.17.45 1.62 0l2.473-2.474c.45-.45.45-1.17 0-1.619zM4.632 15.83H1.17C.54 15.83 0 16.37 0 17c0 .63.495 1.17 1.17 1.17h3.462c.63 0 1.17-.54 1.17-1.17 0-.63-.54-1.17-1.17-1.17zm4.408 9.085c-.405-.45-1.17-.45-1.62 0L4.947 27.39a1.14 1.14 0 000 1.619c.45.45 1.169.45 1.619 0l2.473-2.474a1.14 1.14 0 000-1.619zm0-17.449L6.565 4.992a1.14 1.14 0 00-1.62 0 1.14 1.14 0 000 1.62L7.42 9.084c.45.45 1.17.45 1.62 0 .449-.45.449-1.17 0-1.62z" fill="#898989"/></svg>