<svg width="34" height="34" viewBox="0 0 34 34" fill="none" xmlns="http://www.w3.org/2000/svg"><path d="M33.895 22.015a1.415 1.415 0 00-1.309-.878h-.008c-.01 0-.017.003-.027.004-.109.003-.218.02-.326.05a1.58 1.58 0 00-.118.034c-.02.007-.04.01-.06.018a14.695 14.695 0 01-5.615 1.101c-8.147 0-14.775-6.628-14.775-14.775 0-1.948.37-3.836 1.1-5.614.011-.025.015-.051.024-.077.01-.031.02-.062.028-.095.032-.117.052-.234.053-.352l.002-.016v-.004c0-.086-.01-.17-.026-.251l-.01-.053a1.39 1.39 0 00-.074-.24c-.013-.029-.03-.055-.045-.083a1.405 1.405 0 00-.723-.68c-.387-.157-.8-.13-1.149.037l-.01.005a17.32 17.32 0 00-5.683 3.801c-6.859 6.867-6.859 18.04 0 24.91A17.568 17.568 0 0017.599 34c4.51 0 9.02-1.715 12.456-5.144a17.334 17.334 0 003.793-5.664c.005-.008.006-.017.01-.026.04-.084.073-.172.096-.263.001-.008.004-.014.006-.021.068-.28.053-.581-.064-.867zm-5.844 4.837c-5.763 5.754-15.14 5.754-20.901 0-5.755-5.763-5.755-15.139 0-20.9a14.76 14.76 0 011.976-1.646 17.73 17.73 0 00-.304 3.264c0 9.71 7.9 17.61 17.61 17.61 1.105 0 2.195-.104 3.264-.304a14.85 14.85 0 01-1.645 1.976z" fill="#0033EB"/></svg>