<svg width="46" height="46" viewBox="0 0 46 46" fill="none" xmlns="http://www.w3.org/2000/svg">
<g clip-path="url(#clip0)">
<rect width="46" height="46" fill="white"/>
<path d="M42.6458 46H3.35417C1.50458 46 0 44.4954 0 42.6458V37.8542C0 36.0046 1.50458 34.5 3.35417 34.5H42.6458C44.4954 34.5 46 36.0046 46 37.8542V42.6458C46 44.4954 44.4954 46 42.6458 46ZM3.35417 37.375C3.08967 37.375 2.875 37.5897 2.875 37.8542V42.6458C2.875 42.9103 3.08967 43.125 3.35417 43.125H42.6458C42.9103 43.125 43.125 42.9103 43.125 42.6458V37.8542C43.125 37.5897 42.9103 37.375 42.6458 37.375H3.35417Z" fill="#0033EB"/>
<path d="M34.9798 36.8958C34.1863 36.8958 33.5423 36.2518 33.5423 35.4583V26.8333C33.5423 21.02 28.812 16.2916 23.0007 16.2916C17.1893 16.2916 12.459 21.02 12.459 26.8333V35.4583C12.459 36.2518 11.815 36.8958 11.0215 36.8958C10.228 36.8958 9.58398 36.2518 9.58398 35.4583V26.8333C9.58398 19.435 15.6042 13.4166 23.0007 13.4166C30.3971 13.4166 36.4173 19.435 36.4173 26.8333V35.4583C36.4173 36.2518 35.7733 36.8958 34.9798 36.8958Z" fill="#0033EB"/>
<path d="M16.7715 28.2708C15.978 28.2708 15.334 27.6268 15.334 26.8333C15.334 22.6051 18.7725 19.1666 23.0006 19.1666C23.7941 19.1666 24.4381 19.8106 24.4381 20.6041C24.4381 21.3976 23.7941 22.0416 23.0006 22.0416C20.3576 22.0416 18.209 24.1921 18.209 26.8333C18.209 27.6268 17.565 28.2708 16.7715 28.2708Z" fill="#0033EB"/>
<path d="M23 9.58333C22.2065 9.58333 21.5625 8.93933 21.5625 8.14583V1.4375C21.5625 0.644 22.2065 0 23 0C23.7935 0 24.4375 0.644 24.4375 1.4375V8.14583C24.4375 8.93933 23.7935 9.58333 23 9.58333Z" fill="#0033EB"/>
<path d="M34.021 13.4167C33.653 13.4167 33.285 13.2768 33.0052 12.995C32.4436 12.4334 32.4436 11.523 33.0052 10.9614L37.7489 6.2177C38.3105 5.65611 39.2209 5.65611 39.7825 6.2177C40.3441 6.77928 40.3441 7.6897 39.7825 8.25128L35.0368 12.995C34.757 13.2768 34.389 13.4167 34.021 13.4167Z" fill="#0033EB"/>
<path d="M11.9796 13.4167C11.6116 13.4167 11.2436 13.2768 10.9638 12.995L6.22002 8.25128C5.65843 7.6897 5.65843 6.77928 6.22002 6.2177C6.7816 5.65611 7.69202 5.65611 8.2536 6.2177L12.9954 10.9634C13.557 11.5249 13.557 12.4354 12.9954 12.9969C12.7156 13.2768 12.3476 13.4167 11.9796 13.4167Z" fill="#0033EB"/>
<path d="M4.3125 24.4375H1.4375C0.644 24.4375 0 23.7935 0 23C0 22.2065 0.644 21.5625 1.4375 21.5625H4.3125C5.106 21.5625 5.75 22.2065 5.75 23C5.75 23.7935 5.106 24.4375 4.3125 24.4375Z" fill="#0033EB"/>
<path d="M44.5625 24.4375H41.6875C40.894 24.4375 40.25 23.7935 40.25 23C40.25 22.2065 40.894 21.5625 41.6875 21.5625H44.5625C45.356 21.5625 46 22.2065 46 23C46 23.7935 45.356 24.4375 44.5625 24.4375Z" fill="#0033EB"/>
</g>
<defs>
<clipPath id="clip0">
<rect width="46" height="46" fill="white"/>
</clipPath>
</defs>
</svg>
