<svg width="46" height="46" viewBox="0 0 46 46" fill="none" xmlns="http://www.w3.org/2000/svg">
<path d="M23.0002 28.4805C22.2571 28.4805 21.6525 27.8759 21.6525 27.1328C21.6525 26.59 21.9755 26.1025 22.4754 25.8907C23.0789 25.6352 23.801 25.8533 24.4572 26.489C24.9918 27.0069 25.845 26.9934 26.3628 26.4589C26.8808 25.9243 26.8672 25.0712 26.3327 24.5533C25.7243 23.9638 25.048 23.5472 24.3478 23.3121V21.7422C24.3478 20.9979 23.7444 20.3945 23.0002 20.3945C22.2559 20.3945 21.6525 20.9979 21.6525 21.7422V23.3208C21.576 23.3481 21.4999 23.3768 21.4243 23.4088C19.9256 24.0435 18.9572 25.5053 18.9572 27.1328C18.9572 29.3621 20.7709 31.1758 23.0002 31.1758C23.7432 31.1758 24.3478 31.7803 24.3478 32.5234C24.3478 33.0882 23.9916 33.5974 23.4614 33.7905C22.7692 34.0425 21.9634 33.7007 21.2507 32.8521C20.772 32.2821 19.922 32.2082 19.3521 32.6869C18.7821 33.1656 18.7081 34.0157 19.1868 34.5855C19.9154 35.453 20.7634 36.0478 21.6526 36.3472V37.9141C21.6526 38.6583 22.256 39.2617 23.0002 39.2617C23.7445 39.2617 24.3479 38.6583 24.3479 37.9141V36.3352C24.3599 36.331 24.372 36.3273 24.3839 36.323C25.9744 35.7437 27.0431 34.2167 27.0431 32.5234C27.0431 30.2941 25.2294 28.4805 23.0002 28.4805Z" fill="#0033EB"/>
<path d="M35.481 20.2381C33.8793 18.2676 32.0483 16.6976 30.0383 15.5687C30.3675 15.1792 30.6272 14.7225 30.7949 14.2136C31.4531 12.2092 30.4917 9.82837 28.0378 9.05275L31.4778 3.05433C31.9119 2.2973 31.5219 1.3331 30.6851 1.0898C28.1978 0.366652 25.6123 0 23 0C20.3877 0 17.8022 0.366652 15.3149 1.0898C14.4771 1.33337 14.0887 2.2982 14.5222 3.05433L17.9622 9.05284C15.518 9.8245 14.5444 12.2019 15.2054 14.2146C15.3726 14.7222 15.6323 15.1787 15.9625 15.5683C13.9522 16.6973 12.121 18.2674 10.5191 20.2381C7.31696 24.1775 5.48047 29.1465 5.48047 33.8711C5.48047 43.6722 13.3011 46 23 46C32.7057 46 40.5195 43.6683 40.5195 33.8711C40.5195 29.1465 38.683 24.1775 35.481 20.2381ZM17.7438 3.25396C19.4631 2.88282 21.2245 2.69531 23 2.69531C24.7755 2.69531 26.5369 2.88282 28.2562 3.25396L25.2884 8.42914C23.7683 8.21693 22.2321 8.21702 20.7117 8.42923L17.7438 3.25396ZM18.6243 11.6703C20.9436 10.9095 23.3701 10.7653 25.7291 11.2369C25.7319 11.2375 25.7348 11.238 25.7375 11.2386C26.2874 11.3489 26.8335 11.4925 27.3739 11.6697C28.0801 11.9025 28.4661 12.6664 28.2346 13.3714C28.0663 13.882 27.622 14.2337 27.0994 14.2906C25.7557 13.8699 24.3851 13.6562 23 13.6562C21.6177 13.6562 20.2498 13.869 18.9087 14.288C18.378 14.2334 17.9326 13.8792 17.7658 13.3727C17.5339 12.6664 17.9199 11.9024 18.6243 11.6703ZM23 43.3227C12.4707 43.3227 8.17578 40.5716 8.17578 33.8711C8.17578 29.8154 9.83367 25.3545 12.6105 21.9382C15.5389 18.3356 19.2286 16.3516 23 16.3516C27.1513 16.3516 30.7824 18.7308 33.3895 21.9382C36.1663 25.3545 37.8242 29.8154 37.8242 33.8711C37.8242 40.5716 33.5293 43.3227 23 43.3227Z" fill="#0033EB"/>
</svg>
