<svg width="46" height="46" viewBox="0 0 46 46" fill="none" xmlns="http://www.w3.org/2000/svg">
<rect width="46" height="46" fill="white"/>
<path d="M34.8242 5.91891C34.8242 3.41194 32.7923 1.38 30.2853 1.38H14.5666C12.0596 1.38 10.0273 3.41194 10.0273 5.91891V39.9661C10.0273 42.4731 12.0596 44.505 14.5666 44.505H30.2853C32.7923 44.505 34.8242 42.4731 34.8242 39.9661V5.91891ZM12.1836 9.25032H32.668V34.3707H12.1836V9.25032ZM14.5447 3.53626H30.3072C31.6208 3.53626 32.668 4.63123 32.668 5.94519V7.09407H12.1836V5.94519C12.1836 4.63123 13.2311 3.53626 14.5447 3.53626ZM30.3072 42.3488H14.5447C13.2496 42.3582 12.1927 41.3151 12.1836 40.02V36.5269H32.668V39.9924C32.6744 41.2875 31.6299 42.3424 30.3348 42.3488H30.3072Z" fill="#0033EB"/>
<path d="M24.5343 38.3597H20.3145C19.7188 38.3597 19.2363 38.8422 19.2363 39.4379C19.2363 40.0335 19.7188 40.516 20.3145 40.516H24.5343C25.1296 40.516 25.6124 40.0335 25.6124 39.4379C25.6124 38.8422 25.1296 38.3597 24.5343 38.3597Z" fill="#0033EB"/>
</svg>
