<svg width="46" height="46" viewBox="0 0 46 46" fill="none" xmlns="http://www.w3.org/2000/svg">
<g clip-path="url(#clip0)">
<path d="M42.5398 12.4808L42.5384 12.445C42.5184 12.0032 42.5051 11.5357 42.497 11.0156C42.4595 8.4793 40.4433 6.38131 37.9066 6.23953C32.6177 5.94438 28.5264 4.2198 25.0305 0.812418L25.0007 0.78399C23.8605 -0.261493 22.1404 -0.261493 20.9999 0.78399L20.97 0.812418C17.4742 4.2198 13.3828 5.94438 8.09398 6.23988C5.55766 6.38131 3.54109 8.4793 3.50354 11.016C3.49582 11.5326 3.48213 12 3.46213 12.445L3.46002 12.5282C3.35719 17.9213 3.22945 24.6332 5.47483 30.7254C6.70948 34.0756 8.57934 36.9878 11.0321 39.3816C13.8257 42.1078 17.4847 44.2721 21.9074 45.8142C22.0513 45.8644 22.2008 45.9051 22.3531 45.9356C22.5679 45.9784 22.7841 45.9998 23.0003 45.9998C23.2165 45.9998 23.433 45.9784 23.6474 45.9356C23.7997 45.9051 23.9503 45.864 24.0949 45.8135C28.5123 44.2686 32.1675 42.1032 34.9586 39.3774C37.4103 36.9828 39.2802 34.07 40.5159 30.7191C42.7697 24.6087 42.6423 17.8841 42.5398 12.4808ZM37.9834 29.7852C35.6152 36.2062 30.7809 40.6159 23.2042 43.2656C23.1772 43.2747 23.1484 43.2828 23.1185 43.2887C23.0403 43.3042 22.9606 43.3042 22.8813 43.2884C22.8518 43.2824 22.823 43.2747 22.7964 43.2656C15.2116 40.6208 10.3741 36.2136 8.00765 29.7922C5.93809 24.1766 6.0553 18.0153 6.15883 12.5798L6.15954 12.5496C6.18059 12.0825 6.19463 11.5933 6.20235 11.0556C6.2192 9.92943 7.11623 8.99765 8.24454 8.93483C11.2374 8.76778 13.8668 8.18941 16.2827 7.16674C18.6955 6.14547 20.8384 4.70587 22.8332 2.76581C22.9347 2.68018 23.0663 2.67983 23.1673 2.76581C25.1625 4.70587 27.3054 6.14547 29.7178 7.16674C32.1338 8.18941 34.7631 8.76778 37.7564 8.93483C38.8847 8.99765 39.7817 9.92943 39.7982 11.056C39.8063 11.5964 39.8203 12.0857 39.8414 12.5496C39.9445 17.9915 40.059 24.1577 37.9834 29.7852Z" fill="#0033EB"/>
<path d="M22.999 11.5369C16.6777 11.5369 11.5352 16.6797 11.5352 23.0007C11.5352 29.3221 16.6777 34.4649 22.999 34.4649C29.32 34.4649 34.4629 29.3221 34.4629 23.0007C34.4629 16.6797 29.32 11.5369 22.999 11.5369ZM22.999 31.7654C18.166 31.7654 14.2343 27.8337 14.2343 23.0007C14.2343 18.1678 18.166 14.236 22.999 14.236C27.8316 14.236 31.7633 18.1678 31.7633 23.0007C31.7633 27.8337 27.8316 31.7654 22.999 31.7654Z" fill="#0033EB"/>
<path d="M26.2945 19.4416L20.9698 24.7663L19.5246 23.3211C18.9975 22.7939 18.1429 22.7939 17.6158 23.3211C17.089 23.8482 17.089 24.7028 17.6158 25.2295L20.0156 27.6293C20.2792 27.8929 20.6245 28.0245 20.9698 28.0245C21.3152 28.0245 21.6605 27.8929 21.9241 27.6293L28.2033 21.3501C28.7301 20.823 28.7301 19.9684 28.2033 19.4416C27.6762 18.9142 26.8216 18.9142 26.2945 19.4416Z" fill="#0033EB"/>
</g>
<defs>
<clipPath id="clip0">
<rect width="46" height="46" fill="white"/>
</clipPath>
</defs>
</svg>
