<svg width="217" height="63" viewBox="0 0 217 63" fill="none" xmlns="http://www.w3.org/2000/svg">
<path fill-rule="evenodd" clip-rule="evenodd" d="M12.8891 11.0776C2.27956 19.8223 -1.76475 33.3064 4.18312 45.6681C10.131 58.0298 22.6335 63.7172 36.0941 60.8713L36.0892 60.8723L36.0842 60.8735L36.0793 60.8745L36.0743 60.8754L36.0694 60.8764L36.0644 60.8776L36.0596 60.8786L36.0546 60.8796L36.0496 60.8806L36.0448 60.8816L36.0398 60.8828L36.0349 60.8838L36.0298 60.8848L36.025 60.8857L36.0151 60.8879L36.0101 60.8889L36.0052 60.8899L36.0004 60.8909L35.9953 60.892L35.9904 60.8931L35.9854 60.8941L35.9806 60.8951L35.9756 60.896L35.9707 60.8971L35.9658 60.8981L35.9608 60.8991L35.9559 60.9002L35.9509 60.9013L35.946 60.9023L35.9412 60.9032L35.9361 60.9042L35.9313 60.9053L35.9263 60.9063L35.9214 60.9073L35.9164 60.9084L35.9115 60.9094L35.9066 60.9104L35.9016 60.9114L35.9004 60.9117L35.8967 60.9124L35.8917 60.9134L35.8869 60.9145L35.882 60.9154L35.8769 60.9164L35.8721 60.9174L35.8671 60.9184L35.8622 60.9195L35.8573 60.9204L35.8523 60.9214L35.8475 60.9224L35.8425 60.9235L35.8375 60.9245L35.8325 60.9254L35.8277 60.9264L35.8228 60.9275L35.8178 60.9285L35.8129 60.9295L35.8079 60.9304L35.8031 60.9315L35.7981 60.9325L35.7931 60.9335L35.7883 60.9345L35.7833 60.9354L35.7784 60.9365C36.2763 60.8879 35.9743 60.9004 37.3466 60.8034C38.719 60.7064 42.2028 60.652 44.7585 60.8875C47.314 61.123 49.7643 61.6404 52.2146 61.7267C54.6648 61.8129 56.5693 61.9635 58.2775 60.8251C59.9858 59.6866 60.9522 57.7547 61.2455 55.6156C61.5389 53.4765 61.0985 51.6155 60.926 49.6835C60.7534 47.7514 60.7877 45.8088 60.9004 44.3458C61.0129 42.883 61.3091 40.9771 61.4845 40.1477C61.66 39.3184 61.6302 39.49 61.7088 39.1688L61.6889 39.2283C64.5576 30.6642 64.2386 24.4522 57.0525 13.5224C49.8664 2.5925 25.6084 1.00893 17.5187 6.46569C9.42899 11.9224 14.5869 9.16647 12.8891 11.0776ZM37.1542 60.6262L37.1648 60.6258L37.1588 60.6272L37.1473 60.63L37.1357 60.6329L37.1242 60.6358L37.1189 60.6371L37.1126 60.6387L37.101 60.6416L37.0896 60.6443L37.0779 60.6471L37.0665 60.65L37.0549 60.6527L37.0434 60.6556L37.0318 60.6585L37.0202 60.6612L37.0087 60.664L36.9971 60.6667L36.9857 60.6696L36.974 60.6723L36.951 60.6779L36.9394 60.6806L36.9279 60.6835L36.9163 60.6862L36.9047 60.6889L36.8933 60.6916L36.8817 60.6945L36.8754 60.6959L36.8701 60.6972L36.8608 60.6993L37.1542 60.6262ZM59.564 44.1279V44.1278L59.5665 44.1236L59.564 44.1279ZM36.6247 60.7544V60.7545L36.6132 60.7571L36.6019 60.7597L36.5905 60.7623L36.5791 60.7649L36.5678 60.7675L36.5564 60.7701L36.545 60.7726L36.5336 60.7752L36.5222 60.7778L36.5108 60.7804L36.5099 60.7807L36.4995 60.7829L36.4879 60.7855L36.4767 60.7879V60.7881L36.4652 60.7905V60.7907L36.4539 60.7931L36.4424 60.7957L36.2944 60.8282L36.2829 60.8307L36.2716 60.8332L36.2662 60.8344L36.2601 60.8357L36.2488 60.8382L36.2374 60.8407L36.226 60.8431L36.2146 60.8455L36.2033 60.8479L36.1918 60.8504L36.1805 60.8528L36.169 60.8553L36.1577 60.8577L36.1349 60.8626L36.1234 60.865L36.1121 60.8674L36.1234 60.865L36.1349 60.8626L36.1577 60.8577L36.169 60.8553L36.1805 60.8528L36.1918 60.8504L36.2033 60.8479L36.2146 60.8455L36.226 60.8431L36.2374 60.8407L36.2662 60.8344L36.2716 60.8332L36.2829 60.8307L36.2944 60.8283V60.8282L36.3057 60.8257L36.3172 60.8233L36.3285 60.8209V60.8207L36.34 60.8183L36.4083 60.8032L36.4196 60.8007L36.4311 60.7982V60.7981L36.4424 60.7957L36.4539 60.7931L36.4652 60.7905L36.6247 60.7544ZM61.6344 39.3896H61.6343L61.6418 39.3681L61.6344 39.3896ZM61.5377 39.6688H61.5376L61.5452 39.6474L61.5377 39.6688ZM61.4615 39.8832H61.4614L61.4691 39.8618L61.4615 39.8832ZM61.4305 39.9687H61.4304L61.4348 39.957L61.4305 39.9687ZM61.4304 39.9687L61.4228 39.99H61.4226L61.4304 39.9687ZM61.4072 40.0329H61.407L61.4149 40.0115L61.4072 40.0329ZM61.3837 40.0969H61.3835L61.3914 40.0755L61.3837 40.0969ZM61.3835 40.0969L61.3758 40.1182H61.3757L61.3835 40.0969ZM61.3757 40.1182L61.3679 40.1396H61.3678L61.3757 40.1182ZM61.3678 40.1396L61.3601 40.1609H61.3599L61.3678 40.1396ZM61.3441 40.2036H61.344L61.352 40.1823L61.3441 40.2036ZM61.3282 40.2462H61.3281L61.3361 40.2249L61.3282 40.2462ZM61.272 40.3953H61.2719L61.28 40.374L61.272 40.3953ZM61.2559 40.4379H61.2557L61.2639 40.4166L61.2559 40.4379ZM61.0928 40.8562V40.8563L61.0886 40.8666L61.0845 40.8771L61.0803 40.8874L61.0761 40.8978L61.072 40.9081V40.9083L61.0678 40.9186L61.0637 40.9289L61.0595 40.9393L61.0554 40.9497L61.0511 40.9602L61.0469 40.9706L61.0428 40.9809L61.0343 41.0017L61.0301 41.012V41.0122L61.0091 41.064L61.0062 41.0709L61.0049 41.0744L61.0006 41.0848L60.9965 41.0951L60.9922 41.1054V41.1056L60.9837 41.1262L60.9922 41.1054L61.0928 40.8562ZM60.971 41.1572V41.1574L60.9668 41.1677L60.9625 41.1781L60.9611 41.1815L60.9582 41.1884V41.1885L60.9539 41.1988L60.9496 41.2091L60.9454 41.2194L60.9412 41.2298V41.2299L60.9369 41.2402L60.9325 41.2505L60.9282 41.2608L60.924 41.2713L60.9197 41.2816L60.9153 41.292L60.9197 41.2816L60.924 41.2713L60.9282 41.2608L60.9325 41.2505L60.9369 41.2402L60.9412 41.2298L60.971 41.1572ZM60.8068 41.5499H60.8066L60.8228 41.5123L60.8068 41.5499ZM60.8066 41.5499L60.7887 41.5921L60.7758 41.6223L60.7705 41.6344L60.7524 41.6764H60.7523L60.7705 41.6344L60.8066 41.5499ZM60.7523 41.6764L60.7343 41.7185H60.7341L60.7523 41.6764ZM60.6976 41.8026V41.8028L60.6805 41.8416L60.6792 41.8447H60.6791L60.6805 41.8416L60.6976 41.8026ZM60.6791 41.8447L60.6608 41.8867L60.6606 41.8869L60.6791 41.8447ZM60.6421 41.9287V41.9288L60.6235 41.9708L60.6048 42.0126V42.0128L60.586 42.0548L60.5836 42.0605L60.5673 42.0966L60.5485 42.1384L60.5484 42.1386L60.5673 42.0966L60.6048 42.0126L60.6421 41.9287ZM60.5296 42.1802L60.5294 42.1804L60.5344 42.1696L60.5296 42.1802ZM60.5106 42.222V42.2222L60.4915 42.264L60.4849 42.2785L60.4725 42.3058L60.4532 42.3475V42.3476L60.4349 42.3872L60.4341 42.3891V42.3893L60.4146 42.4309L60.3953 42.4726L60.3846 42.496L60.376 42.5142L60.3759 42.5144L60.3953 42.4726L60.4146 42.4309L60.4341 42.3891L60.5106 42.222ZM60.4915 42.264V42.264L60.4849 42.2785L60.4725 42.3058L60.4915 42.264ZM60.3759 42.5144L60.3565 42.5559L60.3564 42.556L60.3759 42.5144ZM60.3368 42.5974V42.5975L60.3337 42.6044L60.3172 42.6391V42.6392L60.2976 42.6807L60.2824 42.7127L60.2778 42.7222V42.7223L60.258 42.7636L60.2381 42.8052V42.8053L60.2307 42.8208L60.2183 42.8465V42.8467L60.1982 42.8881L60.1787 42.9288L60.1782 42.9295L60.158 42.9708V42.9709L60.1982 42.8881H60.1983L60.2183 42.8465L60.3368 42.5974ZM60.2976 42.6807V42.6808L60.2824 42.7127L60.2976 42.6807ZM60.258 42.7636V42.7637L60.2381 42.8052L60.2307 42.8208L60.258 42.7636ZM60.158 42.9709L60.1379 43.0121L60.1261 43.0365L60.1176 43.0535L60.0972 43.0948V43.095L60.0769 43.1361L60.0731 43.1441L60.0566 43.1773L60.0564 43.1775L60.0731 43.1441L60.0769 43.1362V43.1361L60.0972 43.0948L60.158 42.9709ZM60.1379 43.0121V43.0123L60.1261 43.0365L60.1176 43.0535L60.1379 43.0121ZM60.0564 43.1775L60.0361 43.2186H60.036L60.0564 43.1775ZM60.0155 43.2597V43.2598L59.9948 43.301L59.9742 43.342L59.9659 43.3587L59.9534 43.3832L59.9326 43.4243L59.9117 43.4653V43.4654L59.9115 43.4657L59.8908 43.5064L59.8697 43.5474L59.8276 43.6293L59.8064 43.6702L59.8018 43.6792L59.7851 43.7111L59.7639 43.7519V43.7521L59.7462 43.7857L59.7425 43.7928V43.7929L59.721 43.8336L59.6994 43.8744L59.6903 43.892L59.678 43.9152L59.6563 43.9559L59.678 43.9152L59.6903 43.892L59.6994 43.8744L59.721 43.8338V43.8336L59.7425 43.7928L60.0155 43.2597ZM59.6317 44.0022H59.6316L59.6338 43.9982L59.6317 44.0022ZM59.61 44.0427H59.6099L59.6153 44.0326L59.61 44.0427ZM59.5775 44.1033H59.5774L59.5828 44.0932L59.5775 44.1033ZM59.5721 44.1133H59.5719L59.5771 44.1041L59.5721 44.1133ZM59.5719 44.1133L59.5666 44.1236H59.5665L59.5719 44.1133ZM36.3057 60.8257L36.3172 60.8233L36.3285 60.8207L36.3057 60.8257ZM36.34 60.8183L36.3513 60.8159L36.3628 60.8133L36.3741 60.8108L36.3855 60.8082L36.3881 60.8079L36.3969 60.8058L36.4083 60.8032L36.4196 60.8007L36.4311 60.7981L36.34 60.8183ZM36.4879 60.7855L36.4995 60.7829L36.5099 60.7807L36.5108 60.7804L36.5222 60.7778L36.5336 60.7752L36.545 60.7726L36.5564 60.7701L36.5678 60.7675L36.5791 60.7649L36.5905 60.7623L36.6019 60.7597L36.6132 60.7571L36.6247 60.7544L36.4879 60.7855ZM36.4767 60.7879L36.4652 60.7905L36.4767 60.7879ZM59.5771 44.1041L59.5774 44.1033L59.5771 44.1041ZM59.5828 44.0932L59.5883 44.0832L59.5828 44.0932ZM59.5883 44.0832L59.5938 44.0729L59.5883 44.0832ZM59.5938 44.0729L59.5992 44.0629L59.5938 44.0729ZM59.5992 44.0629L59.6046 44.0528L59.5992 44.0629ZM59.6046 44.0528L59.6099 44.0427L59.6046 44.0528ZM59.6153 44.0326L59.6208 44.0226L59.6153 44.0326ZM59.6208 44.0226L59.6263 44.0123L59.6208 44.0226ZM59.6263 44.0123L59.6316 44.0022L59.6263 44.0123ZM59.6338 43.9982L59.637 43.9922L59.6338 43.9982ZM59.637 43.9922L59.6425 43.982L59.637 43.9922ZM59.6425 43.982L59.6478 43.9719L59.6425 43.982ZM59.6478 43.9719L59.6532 43.9618L59.6478 43.9719ZM59.7851 43.7111L59.8018 43.6792L59.8064 43.6702L59.8276 43.6293L59.8697 43.5474L59.8908 43.5064L59.9115 43.4657L59.9117 43.4653L59.7851 43.7111ZM59.9326 43.4243L59.9534 43.3832L59.9659 43.3587L59.9742 43.342L59.9948 43.301L60.0155 43.2597L59.9326 43.4243ZM60.5344 42.1696L60.5484 42.1386L60.5344 42.1696ZM60.8228 41.5123L60.8246 41.5077L60.8228 41.5123ZM60.8246 41.5077L60.8426 41.4654L60.8246 41.5077ZM60.8426 41.4654L60.8603 41.4232L60.8426 41.4654ZM60.8603 41.4232L60.8692 41.4023L60.8603 41.4232ZM60.8692 41.4023L60.8782 41.3809L60.8692 41.4023ZM60.8782 41.3809L60.8959 41.3386L60.8782 41.3809ZM60.8959 41.3386L60.9135 41.2962L60.8959 41.3386ZM60.6421 41.9287L60.6235 41.9708L60.6421 41.9287ZM60.5106 42.222L60.4915 42.264L60.5106 42.222ZM60.4532 42.3475L60.4349 42.3872L60.4532 42.3475ZM60.3368 42.5974L60.3337 42.6044L60.3368 42.5974ZM60.3172 42.6391L60.2976 42.6807L60.3172 42.6391ZM60.2778 42.7222L60.258 42.7636L60.2778 42.7222ZM60.158 42.9708L60.1379 43.0121L60.158 42.9708ZM59.7639 43.7519L59.7462 43.7857L59.7639 43.7519ZM60.9454 41.2194L60.9496 41.2091L60.9539 41.1988L60.9582 41.1884L60.9454 41.2194ZM60.9611 41.1815L60.9625 41.1781L60.9668 41.1677L60.971 41.1572L60.9611 41.1815ZM60.9965 41.0951L61.0006 41.0848L61.0062 41.0709L61.0091 41.064L61.0134 41.0535L61.0176 41.0432L61.0301 41.012L60.9965 41.0951ZM61.0343 41.0017L61.0428 40.9809L61.0469 40.9706L61.0511 40.9602L61.0678 40.9186L61.072 40.9081L61.0343 41.0017ZM61.0761 40.8978L61.0803 40.8874L61.0845 40.8771L61.0886 40.8666L61.0928 40.8562L61.0761 40.8978ZM61.2639 40.4166L61.2686 40.4043L61.2639 40.4166ZM61.2686 40.4043L61.2719 40.3953L61.2686 40.4043ZM61.28 40.374L61.2881 40.3528L61.28 40.374ZM61.2881 40.3528L61.2961 40.3314L61.2881 40.3528ZM61.2961 40.3314L61.3041 40.3102L61.2961 40.3314ZM61.3041 40.3102L61.3107 40.2927L61.3041 40.3102ZM61.3107 40.2927L61.3122 40.2888L61.3107 40.2927ZM61.3122 40.2888L61.3202 40.2675L61.3122 40.2888ZM61.3202 40.2675L61.3281 40.2462L61.3202 40.2675ZM61.3361 40.2249L61.344 40.2036L61.3361 40.2249ZM61.352 40.1823L61.3525 40.181L61.352 40.1823ZM61.3525 40.181L61.3599 40.1609L61.3525 40.181ZM61.3914 40.0755L61.3938 40.0689L61.3914 40.0755ZM61.3938 40.0689L61.3993 40.0542L61.3938 40.0689ZM61.3993 40.0542L61.407 40.0329L61.3993 40.0542ZM61.4149 40.0115L61.4226 39.99L61.4149 40.0115ZM61.4348 39.957L61.4382 39.9473L61.4348 39.957ZM61.4382 39.9473L61.446 39.926L61.4382 39.9473ZM61.446 39.926L61.4537 39.9045L61.446 39.926ZM61.4537 39.9045L61.4614 39.8832L61.4537 39.9045ZM61.4691 39.8618L61.4752 39.8448L61.4691 39.8618ZM61.4752 39.8448L61.4768 39.8403L61.4752 39.8448ZM61.4768 39.8403L61.4844 39.819L61.4768 39.8403ZM61.4844 39.819L61.4921 39.7975L61.4844 39.819ZM61.4921 39.7975L61.4998 39.7761L61.4921 39.7975ZM61.4998 39.7761L61.5074 39.7547L61.4998 39.7761ZM61.5074 39.7547L61.5149 39.7331L61.5074 39.7547ZM61.5149 39.7331L61.5152 39.7325L61.5149 39.7331ZM61.5152 39.7325L61.5225 39.7118L61.5152 39.7325ZM61.5225 39.7118L61.5301 39.6903L61.5225 39.7118ZM61.5301 39.6903L61.5376 39.6688L61.5301 39.6903ZM61.5452 39.6474L61.5527 39.626L61.5452 39.6474ZM61.5527 39.626L61.5549 39.6199L61.5527 39.626ZM61.5549 39.6199L61.5602 39.6045L61.5549 39.6199ZM61.5602 39.6045L61.5677 39.5831L61.5602 39.6045ZM61.5677 39.5831L61.5751 39.5615L61.5677 39.5831ZM61.5751 39.5615L61.5826 39.54L61.5751 39.5615ZM61.5826 39.54L61.59 39.5187L61.5826 39.54ZM61.59 39.5187L61.594 39.5074L61.59 39.5187ZM61.594 39.5074L61.5974 39.4972L61.594 39.5074ZM61.5974 39.4972L61.605 39.4757L61.5974 39.4972ZM61.605 39.4757L61.6122 39.4541L61.605 39.4757ZM61.6122 39.4541L61.6196 39.4326L61.6122 39.4541ZM61.6196 39.4326L61.627 39.4112L61.6196 39.4326ZM61.627 39.4112L61.6327 39.3946L61.627 39.4112ZM61.6327 39.3946L61.6343 39.3896L61.6327 39.3946ZM61.6418 39.3681L61.649 39.3467L61.6418 39.3681ZM61.649 39.3467L61.6564 39.325L61.649 39.3467ZM61.6564 39.325L61.6635 39.3036L61.6564 39.325ZM61.6635 39.3036L61.6709 39.282L61.6635 39.3036ZM61.6709 39.282L61.6709 39.2819L61.6709 39.282ZM61.6709 39.2819L61.6781 39.2605L61.6709 39.2819ZM61.6781 39.2605L61.6853 39.2389L61.6781 39.2605ZM24.3725 10.3669C26.9524 9.77664 29.6848 9.42709 32.1436 9.3693C34.6025 9.3116 37.0742 9.54537 38.7292 9.9202C40.3841 10.2949 41.5089 10.8112 42.3747 11.291C43.2404 11.7707 43.8479 12.2148 44.4549 12.6586C44.7556 12.8939 44.866 12.9679 45.4152 13.4646C45.9643 13.9613 46.993 15.0264 47.922 16.3953C48.851 17.7643 49.8946 19.6316 50.9453 22.1039C51.996 24.5762 53.1214 27.9479 53.7263 30.5882C54.3311 33.2284 54.4115 35.9049 54.5006 37.9227C53.9996 39.0503 53.7438 39.6409 52.8882 41.2766C52.0328 42.9123 50.5519 45.3154 49.3659 46.9083C48.1798 48.5011 46.6025 50.2049 45.575 51.1419C44.5474 52.079 44.2534 52.2933 43.5278 52.8421C43.1499 53.004 43.7246 52.7988 42.3487 53.3147C40.9729 53.8306 37.1247 55.075 34.5816 55.6146C32.0384 56.1543 28.6848 56.8393 27.5981 56.9113C26.5115 56.9834 27.1526 56.9382 26.935 56.9477C25.6699 56.3924 25.2581 56.2486 23.3304 55.081C21.4026 53.9135 18.2155 51.0412 16.4635 49.3022C14.7116 47.5632 13.2319 45.8656 11.8444 43.9516C10.4568 42.0377 9.1892 40.0317 8.17649 37.5638C8.11515 37.1187 8.17835 38.1056 8.02918 36.1966C7.88001 34.2876 7.8866 28.526 8.95768 24.8709C10.0287 21.2159 12.8678 16.3961 13.912 14.9058C14.9562 13.4153 14.3698 14.2657 14.6017 13.961C15.2899 13.5737 15.2881 13.5383 16.7653 12.844C18.2427 12.1496 21.7925 10.9573 24.3725 10.3669Z" fill="#0033EB"/>
<path fill-rule="evenodd" clip-rule="evenodd" d="M8.42177 47.3927C0.757629 35.7361 2.3305 20.5296 11.3419 10.3884C0.732441 19.1332 -3.15721 33.795 2.78889 46.1532C9.84184 60.8116 28.0623 66.6779 43.4857 59.2562C44.5712 58.7338 45.614 58.1595 46.6122 57.5381C45.5093 58.1322 44.3088 58.5892 43.1717 58.9602C43.1535 58.9665 43.1352 58.9729 43.117 58.9794C38.2693 60.6736 33.1726 61.0761 28.2993 60.278C20.4273 58.9887 13.138 54.5661 8.42177 47.3927Z" fill="url(#paint0_linear)"/>
<path fill-rule="evenodd" clip-rule="evenodd" d="M11.342 10.3883C2.33056 20.5295 0.757693 35.736 8.42184 47.3926C13.138 54.566 20.4273 58.9886 28.2994 60.2778C29.2875 60.3654 30.2759 60.4531 31.3942 60.4346C30.558 60.3519 29.6748 60.2052 28.7007 59.9667C26.5795 59.4473 24.0263 58.4928 21.6865 57.1191C20.8199 56.6104 19.9825 56.0443 19.1779 55.4255C17.8099 54.3732 16.5362 53.1683 15.374 51.8338C13.5284 49.7146 11.9641 47.2682 10.7184 44.6634C9.64607 42.4213 8.80959 40.0617 8.43029 37.311C8.27211 36.9255 8.12265 36.5321 7.98352 36.131C6.95362 33.1625 6.49077 29.7715 6.51437 26.9587C6.53519 24.4643 6.93903 22.425 7.61705 20.4602C7.70348 20.2096 7.79447 19.9601 7.88974 19.7111C7.99049 19.4477 8.09598 19.1846 8.2063 18.9226C9.01713 16.9961 10.0881 15.1195 11.4468 13.4674C12.9904 11.5909 14.9055 10.0046 17.3598 8.59027C19.8143 7.17619 22.8082 5.93428 25.4611 5.24661C27.5734 4.69915 29.4698 4.50319 31.2492 4.48238C33.2985 4.15736 35.4664 4.07736 37.6415 4.35434C41.0392 4.78705 44.455 6.09084 47.0608 7.45178C49.666 8.81244 51.4614 10.2305 53.182 11.9314C54.9027 13.6324 56.549 15.6164 57.7143 17.5786C58.8798 19.5406 59.5639 21.4805 59.9974 23.8672C60.4309 26.2543 60.6133 29.0883 60.1325 32.573C60.0193 33.3935 59.8694 34.2501 59.6904 35.1218C59.1108 37.9467 58.2269 40.9314 57.3045 43.367C57.3027 43.3725 57.3008 43.3778 57.299 43.3831C57.1435 43.8268 56.9828 44.2551 56.8189 44.6637C56.3964 45.716 55.9518 46.6372 55.4795 47.4711C54.8565 48.6672 54.2394 49.6777 53.651 50.5601C52.4885 52.3037 51.4384 53.5472 50.3768 54.6201C49.9247 55.0771 49.4704 55.5031 49.0032 55.897C60.4269 47.2781 64.786 32.0473 58.6411 19.2764C51.5881 4.61785 33.3675 -1.24847 17.9444 6.17326C15.5241 7.33786 13.3166 8.76058 11.342 10.3883Z" fill="url(#paint1_linear)"/>
<path fill-rule="evenodd" clip-rule="evenodd" d="M16.7187 49.0493C14.9667 47.3104 13.5876 45.7513 12.0995 43.6988C10.8125 41.9234 9.44434 39.7789 8.43164 37.311C8.81094 40.0619 9.64742 42.4214 10.7197 44.6634C11.9654 47.2682 13.5297 49.7146 15.3754 51.8338C16.5375 53.1684 17.8112 54.3732 19.1792 55.4256C20.208 55.6702 21.2367 55.9149 22.5973 56.0787C23.8015 56.2232 25.2658 56.3041 26.9374 56.2313C25.6722 55.676 24.4513 55.042 23.3328 54.3646C20.5956 52.707 18.4707 50.7884 16.7187 49.0493Z" fill="url(#paint2_linear)"/>
<path fill-rule="evenodd" clip-rule="evenodd" d="M26.9358 56.2312C25.2643 56.3041 23.8 56.2231 22.5958 56.0786C21.2352 55.9148 20.2065 55.6702 19.1777 55.4255C19.9823 56.0443 20.8198 56.6104 21.6864 57.1191C24.0262 58.4928 26.5793 59.4473 28.7005 59.9667C29.6747 60.2052 30.5578 60.3519 31.394 60.4346C31.9392 60.4257 32.5153 60.3915 33.1373 60.3199C35.0355 60.1012 37.3618 59.5335 39.6067 58.6979C40.4751 58.3747 41.3313 58.0113 42.1575 57.6119C41.8645 57.6959 41.5693 57.7745 41.2725 57.8468C38.5245 58.5169 35.6455 58.6663 32.5314 58.0425C32.14 57.9642 31.745 57.8736 31.3478 57.7718C29.8766 57.3947 28.3775 56.864 26.9358 56.2312Z" fill="#00EBA1"/>
<path fill-rule="evenodd" clip-rule="evenodd" d="M39.6072 58.698C37.3623 59.5336 35.036 60.1013 33.1379 60.3199C32.5158 60.3916 31.9397 60.4258 31.3945 60.4347C32.3793 60.5321 33.2988 60.5407 34.2249 60.5059C35.9373 60.4419 37.6725 60.229 39.1441 59.968C40.6155 59.7073 41.8233 59.3979 43.117 58.9781C43.1353 58.972 43.1538 58.9662 43.1721 58.9601C44.4163 58.5227 45.6438 58 46.8469 57.3908C47.5913 56.9185 48.3104 56.4199 49.0035 55.8971C49.4708 55.5032 49.9251 55.0772 50.3771 54.6202C51.4387 53.5473 52.4889 52.3037 53.6513 50.5602C54.2397 49.6778 54.8569 48.6673 55.4799 47.4712C54.8602 48.5649 54.1932 49.5083 53.4665 50.3999C52.1857 51.9716 50.7202 53.3829 48.6788 54.6841C46.8581 55.8448 44.5793 56.9179 42.158 57.6119C41.3318 58.0114 40.4756 58.3748 39.6072 58.698Z" fill="#0033EB"/>
<path fill-rule="evenodd" clip-rule="evenodd" d="M32.5312 58.0423C35.6453 58.6661 38.5243 58.5168 41.2724 57.8467C41.5691 57.7743 41.8643 57.6958 42.1573 57.6117C43.4668 56.9789 44.701 56.2555 45.7898 55.4577C47.5655 54.1567 48.9538 52.6581 50.1926 50.9396C51.4314 49.2212 52.5206 47.2831 53.221 45.346C53.2753 45.1955 53.3274 45.0448 53.3773 44.894C53.0005 45.2996 52.6146 45.7007 52.222 46.0982C50.8736 47.4632 49.4443 48.7876 47.8273 49.9592C46.4924 50.9262 45.0296 51.7894 43.2418 52.5552C42.3533 53.2271 41.402 53.8672 40.3978 54.4568C38.5732 55.528 36.5731 56.4326 35.0354 56.9572C33.4977 57.4821 32.4225 57.6267 31.3477 57.7716C31.7448 57.8734 32.1398 57.964 32.5312 58.0423Z" fill="#F7C545"/>
<path fill-rule="evenodd" clip-rule="evenodd" d="M35.0353 56.9574C36.573 56.4328 38.5731 55.5282 40.3976 54.457C41.4019 53.8674 42.3532 53.2273 43.2417 52.5554C42.8638 52.7173 42.4715 52.8748 42.0626 53.028C39.7197 53.9069 36.8388 54.6453 34.2955 55.1847C31.7525 55.7245 29.5474 56.0656 27.5986 56.1948C27.3742 56.2097 27.1531 56.2218 26.9355 56.2312C28.3772 56.864 29.8763 57.3947 31.3475 57.7718C32.4224 57.6269 33.4976 57.4823 35.0353 56.9574Z" fill="#7DC5FF"/>
<path fill-rule="evenodd" clip-rule="evenodd" d="M54.246 39.1088C54.2349 41.2892 53.9693 43.1055 53.3789 44.8942C54.2952 43.9076 55.1576 42.8944 55.9334 41.8394C56.7973 40.6643 57.5537 39.4375 58.1276 38.4171C58.1295 38.3425 58.1311 38.2669 58.1324 38.1904C58.1684 35.9294 57.8853 32.778 56.8473 29.5667C56.8341 29.651 56.8206 29.7359 56.8065 29.821C56.6021 31.0584 56.2961 32.3586 55.5843 34.2912C55.2185 35.2843 54.7458 36.4443 54.2163 37.636C54.2386 38.1427 54.2484 38.6344 54.246 39.1088Z" fill="#002196"/>
<path fill-rule="evenodd" clip-rule="evenodd" d="M58.5455 37.6493C58.4197 37.8873 58.2797 38.1448 58.1266 38.4171C58.0677 40.6785 57.6807 42.0282 57.2278 43.3001C56.7597 44.6145 56.2206 45.8457 55.6816 47.0769C56.2233 46.003 56.7673 44.7843 57.2988 43.3831C57.3008 43.3778 57.3027 43.3725 57.3048 43.3671C58.2271 40.9315 59.111 37.9467 59.6906 35.1218C59.6614 35.1985 59.6218 35.301 59.5659 35.4438C59.4496 35.7412 59.2629 36.2145 58.9134 36.9276C58.8068 37.1452 58.685 37.3852 58.5455 37.6493Z" fill="#0033EB"/>
<path fill-rule="evenodd" clip-rule="evenodd" d="M56.8451 29.5666C57.0221 28.4223 57.1111 27.331 57.1128 26.2723C57.1145 25.1355 57.0154 24.0361 56.8985 23.1878C56.7813 22.3398 56.646 21.7428 56.5594 21.3891C56.5256 21.2513 56.4991 21.1505 56.477 21.0723C55.9514 19.9365 55.398 18.9168 54.7905 17.9141C53.9561 16.5356 53.0203 15.1893 51.6252 13.6855C50.2299 12.1818 48.3752 10.5203 46.1621 9.06736C43.949 7.61454 41.3776 6.36974 39.0803 5.60858C36.7832 4.84769 34.7603 4.57034 32.5928 4.49777C32.1512 4.48318 31.7036 4.47705 31.2483 4.48235C30.0965 4.66502 28.9822 4.925 27.9249 5.24258C26.4765 5.67771 25.1352 6.22061 23.8789 6.85495C25.9335 6.4594 28.0381 6.38247 30.7202 6.93392C33.7266 7.55228 37.4589 8.96042 41.0068 11.0564C41.6122 11.4139 42.212 11.7916 42.8043 12.1872C45.6839 14.1116 48.3835 16.466 50.6417 19.04C53.3643 22.1435 55.4455 25.5662 56.6465 28.9783C56.7155 29.1745 56.7818 29.3706 56.8451 29.5666Z" fill="url(#paint3_linear)"/>
<path fill-rule="evenodd" clip-rule="evenodd" d="M14.8556 14.3713C16.1483 12.6729 17.5057 11.2846 18.9712 10.0764C20.4908 8.81383 22.14 7.73368 23.8799 6.85498C23.631 6.90302 23.3829 6.95552 23.1345 7.01229C21.3214 7.4266 19.4975 8.06075 17.8875 8.82377C15.8412 9.81611 13.9984 11.0923 12.384 12.6272C11.6889 13.2882 11.1098 13.9527 10.6043 14.6377C10.5872 14.6616 10.5703 14.6854 10.5534 14.7092C10.1396 15.294 9.77875 15.8699 9.4384 16.4741C9.09795 17.0783 8.7785 17.7105 8.4743 18.3503C8.38387 18.5405 8.29455 18.7314 8.20644 18.9226C8.09612 19.1846 7.99063 19.4477 7.88988 19.7111C7.79461 19.9601 7.70362 20.2096 7.61719 20.4603C7.75725 20.1777 7.95596 19.8555 8.30032 19.436C8.87898 18.7312 9.86798 17.7509 11.3523 16.6408C12.3309 15.9089 13.5243 15.1206 14.8556 14.3713Z" fill="url(#paint4_linear)"/>
<path fill-rule="evenodd" clip-rule="evenodd" d="M56.8467 29.5666C57.8847 32.778 58.1679 35.9294 58.1318 38.1904C58.1305 38.2669 58.1289 38.3425 58.127 38.417C58.2801 38.1448 58.4202 37.8872 58.5459 37.6493C58.6854 37.3851 58.8073 37.1452 58.9139 36.9276C58.9497 36.6886 58.9824 36.4508 59.0118 36.2147C59.3699 33.3334 59.2287 30.7057 58.8258 28.3974C58.4227 26.0893 57.7578 24.1012 57.0588 22.402C56.8683 21.939 56.6753 21.4974 56.4785 21.0723C56.5006 21.1505 56.5271 21.2513 56.561 21.3891C56.6476 21.7428 56.7829 22.3398 56.9 23.1879C57.0169 24.0361 57.1161 25.1355 57.1143 26.2723C57.1127 27.331 57.0236 28.4223 56.8467 29.5666Z" fill="url(#paint5_linear)"/>
<path fill-rule="evenodd" clip-rule="evenodd" d="M58.8239 28.3975C59.2269 30.7058 59.368 33.3335 59.0099 36.2148C58.9806 36.4509 58.9478 36.6887 58.912 36.9277C59.2615 36.2146 59.4482 35.7413 59.5645 35.4438C59.6204 35.301 59.6601 35.1985 59.6892 35.1219C59.8682 34.2502 60.0182 33.3936 60.1314 32.5731C60.6122 29.0884 60.4297 26.2544 59.9962 23.8673C59.5627 21.4806 58.8787 19.5407 57.7132 17.5787C56.5479 15.6165 54.9016 13.6325 53.1808 11.9315C51.4603 10.2306 49.6649 8.81253 47.0596 7.45188C44.4539 6.09094 41.0381 4.78714 37.6404 4.35444C35.4652 4.07745 33.2973 4.15746 31.248 4.48248C31.7033 4.47718 32.1509 4.48331 32.5926 4.4979C34.76 4.57046 36.7829 4.84782 39.08 5.60871C41.3773 6.36987 43.9488 7.61466 46.1618 9.06749C48.375 10.5204 50.2296 12.1819 51.6249 13.6857C53.02 15.1894 53.9558 16.5358 54.7902 17.9142C55.3977 18.9169 55.9511 19.9367 56.4767 21.0724C56.6734 21.4976 56.8665 21.9391 57.0569 22.4021C57.7559 24.1013 58.4209 26.0895 58.8239 28.3975Z" fill="url(#paint6_linear)"/>
<path fill-rule="evenodd" clip-rule="evenodd" d="M56.6469 28.9784C55.4459 25.5663 53.3647 22.1436 50.6422 19.0401C48.3839 16.4661 45.6843 14.1117 42.8047 12.1875C42.8711 12.2352 42.9425 12.2864 43.0192 12.3414C43.2943 12.5386 43.64 12.7864 44.0256 13.0883C44.3262 13.3235 44.6511 13.5916 44.9858 13.8943C45.7494 14.5852 46.5635 15.4559 47.4926 16.825C48.4215 18.1938 49.4652 20.0613 50.516 22.5336C51.5666 25.0059 52.6245 28.0831 53.2969 31.0178C53.8343 33.3636 54.1255 35.6183 54.2146 37.6361C54.7441 36.4443 55.2168 35.2844 55.5825 34.2913C56.2944 32.3587 56.6004 31.0585 56.8048 29.821C56.8189 29.7359 56.8323 29.6513 56.8455 29.5667C56.7822 29.3708 56.716 29.1746 56.6469 28.9784Z" fill="url(#paint7_linear)"/>
<path fill-rule="evenodd" clip-rule="evenodd" d="M47.6727 59.8156C46.4902 59.5343 45.2421 59.2464 43.9609 59.0227C43.8033 59.1016 43.645 59.1794 43.4856 59.2561C40.9711 60.4661 38.382 61.3229 35.7793 61.8459C36.2772 61.7974 36.7977 61.7517 37.3475 61.7129C39.5425 61.5577 42.2036 61.5113 44.7593 61.7469C47.3149 61.9823 49.7652 62.4998 52.2155 62.586C54.6657 62.6724 57.116 62.3273 58.8243 61.1887C60.5326 60.0502 61.4988 58.1183 61.7924 55.9792C62.0857 53.8401 61.7059 51.494 61.5334 49.5619C61.3609 47.6298 61.3953 46.1119 61.5079 44.6489C61.6205 43.186 61.8114 41.7781 62.0921 40.4508C62.1622 40.1195 62.2378 39.7931 62.3164 39.4719C61.5139 41.8836 60.4124 44.2075 59.0248 46.381C59.0692 46.785 59.1187 47.1766 59.1728 47.551C59.4146 49.2294 59.7468 50.5646 59.9452 51.9517C60.1436 53.3388 60.2082 54.7783 60.0672 55.9864C59.9261 57.1945 59.5791 58.1713 59.0123 58.9547C58.4453 59.7381 57.6585 60.3281 56.6025 60.6541C55.5464 60.9801 54.2213 61.0422 52.7148 60.8611C51.2084 60.68 49.5208 60.2556 47.6727 59.8156Z" fill="url(#paint8_linear)"/>
<path fill-rule="evenodd" clip-rule="evenodd" d="M47.1504 57.2349C47.9079 57.545 48.6313 57.9419 49.3754 58.2899C50.2984 58.7219 51.253 59.0786 52.1469 59.3241C53.0406 59.5697 53.8736 59.7039 54.6747 59.6879C55.4755 59.6718 56.2447 59.5054 56.7894 59.2866C57.3341 59.068 57.6545 58.797 57.9235 58.4393C58.1924 58.0815 58.41 57.6373 58.4785 56.921C58.5468 56.2048 58.466 55.2169 58.2551 54.1606C58.0441 53.1044 57.7028 51.98 57.3553 50.8807C57.1941 50.3707 57.0315 49.8661 56.8789 49.3418C55.0056 51.6282 52.7731 53.6843 50.2002 55.4199C49.206 56.0904 48.1875 56.6952 47.1504 57.2349Z" fill="url(#paint9_linear)"/>
<path d="M104.63 20.7196C104.63 22.0426 104.321 23.2695 103.703 24.4042C103.085 25.5388 102.236 26.4734 101.157 27.2082L103.887 30.7928L102.67 31.5235L99.9908 27.8735C98.8643 28.4082 97.6556 28.6735 96.357 28.6735C94.8589 28.6735 93.4781 28.3196 92.2146 27.6082C90.9472 26.9004 89.9458 25.935 89.2066 24.7196C88.4634 23.5042 88.0918 22.1696 88.0918 20.7196C88.0918 19.2618 88.4634 17.9234 89.2066 16.7003C89.9458 15.4811 90.9472 14.5156 92.2146 13.8079C93.4781 13.0963 94.8589 12.7424 96.357 12.7424C97.863 12.7424 99.2476 13.0963 100.511 13.8079C101.774 14.5156 102.776 15.4811 103.519 16.7003C104.258 17.9234 104.63 19.2618 104.63 20.7196ZM89.4453 20.7196C89.4453 21.958 89.7542 23.0927 90.3723 24.1158C90.9943 25.1427 91.8312 25.9504 92.8913 26.5389C93.9474 27.1273 95.1053 27.4235 96.357 27.4235C97.6164 27.4235 98.7743 27.1273 99.8344 26.5389C100.891 25.9504 101.731 25.1427 102.35 24.1158C102.968 23.0927 103.277 21.958 103.277 20.7196C103.277 19.4811 102.968 18.3426 102.35 17.3118C101.731 16.2771 100.891 15.4657 99.8344 14.8695C98.7743 14.2771 97.6164 13.981 96.357 13.981C95.1053 13.981 93.9474 14.2771 92.8913 14.8695C91.8312 15.4657 90.9943 16.2771 90.3723 17.3118C89.7542 18.3426 89.4453 19.4811 89.4453 20.7196ZM124.411 28.6966C123.144 28.6966 122.06 28.4734 121.168 28.0311C120.273 27.5888 119.604 27.0158 119.15 26.3081C118.7 25.6005 118.473 24.858 118.473 24.0772H119.838C119.838 24.6696 120.022 25.2311 120.394 25.762C120.765 26.2927 121.297 26.7158 121.994 27.0389C122.69 27.362 123.496 27.5235 124.411 27.5235C125.893 27.5235 127.039 27.2428 127.853 26.6812C128.667 26.1158 129.074 25.2926 129.074 24.2119C129.074 23.2349 128.679 22.5118 127.888 22.0388C127.098 21.5657 126.003 21.2388 124.607 21.058C123.55 20.9158 122.612 20.708 121.786 20.4388C120.961 20.1656 120.273 19.7464 119.717 19.1734C119.166 18.6042 118.888 17.8503 118.888 16.9118C118.888 16.1502 119.072 15.458 119.435 14.831C119.803 14.204 120.398 13.7002 121.215 13.3156C122.033 12.931 123.085 12.7424 124.376 12.7424C125.506 12.7424 126.48 12.9194 127.294 13.2771C128.107 13.6348 128.725 14.1233 129.144 14.7541C129.563 15.381 129.774 16.1002 129.774 16.9118H128.42C128.42 16.308 128.26 15.7887 127.935 15.3425C127.611 14.9002 127.141 14.5579 126.531 14.3118C125.921 14.0695 125.197 13.9464 124.364 13.9464C122.889 13.9464 121.833 14.2233 121.196 14.781C120.558 15.3348 120.241 16.0464 120.241 16.9118C120.241 17.8042 120.64 18.481 121.438 18.9387C122.236 19.3965 123.417 19.7158 124.982 19.8965C125.96 20.0234 126.848 20.2234 127.638 20.5003C128.428 20.7734 129.093 21.2118 129.637 21.8119C130.181 22.4119 130.45 23.212 130.45 24.2119C130.45 25.135 130.212 25.935 129.739 26.6081C129.265 27.2774 128.573 27.7966 127.665 28.1543C126.758 28.5158 125.67 28.6966 124.411 28.6966ZM139.506 13.0694H140.664L147.032 21.2812L147.043 21.2695L153.384 13.0694H154.573V28.3928H153.22V15.2541L147.251 22.9618H146.793L140.855 15.2541V28.3928H139.506V13.0694ZM176.224 28.3928L174.538 24.5158H166.093L164.407 28.3928H162.975L169.645 13.0694H170.986L177.667 28.3928H176.224ZM166.597 23.3541H174.033L170.368 14.9156L170.321 14.7464H170.31L170.263 14.9156L166.597 23.3541ZM192.59 13.0694C193.552 13.0694 194.409 13.2618 195.168 13.6502C195.923 14.0348 196.514 14.581 196.936 15.2887C197.362 15.9926 197.573 16.808 197.573 17.731C197.573 18.4926 197.421 19.1811 197.12 19.8002C196.819 20.4195 196.396 20.9349 195.856 21.3387C195.313 21.7427 194.683 22.0195 193.963 22.1619L197.906 28.3928H196.326L192.567 22.3542C192.473 22.3619 192.332 22.3657 192.14 22.3657H187.407V28.3928H186.058V13.0694H192.59ZM192.59 21.2042C193.283 21.2042 193.904 21.058 194.456 20.7695C195.007 20.4811 195.438 20.0734 195.751 19.5465C196.064 19.0196 196.22 18.4195 196.22 17.7425C196.22 17.0772 196.064 16.4772 195.747 15.9541C195.43 15.4271 194.988 15.0156 194.429 14.7232C193.865 14.431 193.239 14.2848 192.543 14.2848H187.407V21.2042H192.59ZM210.454 14.2848H205.275V13.0694H216.999V14.2848H211.808V28.3928H210.454V14.2848Z" fill="#0033EB"/>
<path d="M95.0355 46.8321H93.517V50.2305H92.7628V46.8321H91.2337L88.9924 50.2305H88.0918L90.6053 46.4086L88.2802 42.8197H89.1181L91.2232 46.1439H92.7628V42.8197H93.517V46.1439H95.0355L97.1511 42.8197H97.989L95.6639 46.4086L98.1776 50.2305H97.2768L95.0355 46.8321ZM100.786 42.8197H101.55V48.9601L106.242 42.8197H106.944V50.2305H106.179V44.1007L101.487 50.2305H100.786V42.8197ZM116.422 42.8197V50.2305H115.658V43.4972H112.118L112.034 45.9746C111.999 46.998 111.917 47.822 111.788 48.4466C111.659 49.0713 111.461 49.537 111.196 49.8442C110.931 50.1511 110.578 50.3046 110.138 50.3046C109.95 50.3046 109.754 50.2799 109.552 50.2305L109.615 49.5318C109.733 49.56 109.849 49.5742 109.96 49.5742C110.267 49.5742 110.517 49.4507 110.709 49.2037C110.901 48.9565 111.046 48.5737 111.144 48.0548C111.241 47.5361 111.308 46.8498 111.343 45.9957L111.448 42.8197H116.422ZM123.481 50.294C122.755 50.294 122.097 50.13 121.507 49.8018C120.917 49.4735 120.456 49.0236 120.125 48.4519C119.793 47.8802 119.627 47.238 119.627 46.5251C119.627 45.8122 119.793 45.17 120.125 44.5983C120.456 44.0266 120.917 43.5766 121.507 43.2485C122.097 42.9203 122.755 42.7562 123.481 42.7562C124.208 42.7562 124.862 42.9185 125.445 43.2432C126.028 43.5679 126.487 44.0178 126.822 44.593C127.158 45.1682 127.325 45.8122 127.325 46.5251C127.325 47.238 127.158 47.882 126.822 48.4572C126.487 49.0325 126.028 49.4824 125.445 49.807C124.862 50.1317 124.208 50.294 123.481 50.294ZM123.481 49.5953C124.061 49.5953 124.585 49.4629 125.052 49.1982C125.52 48.9337 125.887 48.5666 126.152 48.0973C126.417 47.628 126.55 47.1038 126.55 46.5251C126.55 45.9463 126.417 45.4223 126.152 44.953C125.887 44.4835 125.52 44.1166 125.052 43.8519C124.585 43.5873 124.061 43.455 123.481 43.455C122.902 43.455 122.377 43.5873 121.905 43.8519C121.434 44.1166 121.064 44.4835 120.795 44.953C120.526 45.4223 120.392 45.9463 120.392 46.5251C120.392 47.1038 120.526 47.628 120.795 48.0973C121.064 48.5666 121.434 48.9337 121.905 49.1982C122.377 49.4629 122.902 49.5953 123.481 49.5953ZM130.551 42.8197H131.316V48.9601L136.008 42.8197H136.709V50.2305H135.945V44.1007L131.253 50.2305H130.551V42.8197ZM133.609 42.2797C133.086 42.2797 132.672 42.1598 132.368 41.9198C132.064 41.6798 131.909 41.3445 131.902 40.9141H132.478C132.485 41.1963 132.59 41.4186 132.792 41.581C132.995 41.7433 133.267 41.8246 133.609 41.8246C133.944 41.8246 134.215 41.7433 134.421 41.581C134.627 41.4186 134.733 41.1963 134.74 40.9141H135.316C135.309 41.3445 135.152 41.6798 134.845 41.9198C134.538 42.1598 134.126 42.2797 133.609 42.2797ZM147.099 46.8321H145.423V50.2305H144.669V42.8197H145.423V46.1439H147.099L149.581 42.8197H150.419L147.696 46.4192L150.576 50.2305H149.686L147.099 46.8321ZM156.347 50.294C155.621 50.294 154.963 50.13 154.373 49.8018C153.783 49.4735 153.322 49.0236 152.99 48.4519C152.659 47.8802 152.493 47.238 152.493 46.5251C152.493 45.8122 152.659 45.17 152.99 44.5983C153.322 44.0266 153.783 43.5766 154.373 43.2485C154.963 42.9203 155.621 42.7562 156.347 42.7562C157.073 42.7562 157.728 42.9185 158.311 43.2432C158.894 43.5679 159.353 44.0178 159.688 44.593C160.023 45.1682 160.191 45.8122 160.191 46.5251C160.191 47.238 160.023 47.882 159.688 48.4572C159.353 49.0325 158.894 49.4824 158.311 49.807C157.728 50.1317 157.073 50.294 156.347 50.294ZM156.347 49.5953C156.927 49.5953 157.45 49.4629 157.918 49.1982C158.386 48.9337 158.752 48.5666 159.018 48.0973C159.283 47.628 159.416 47.1038 159.416 46.5251C159.416 45.9463 159.283 45.4223 159.018 44.953C158.752 44.4835 158.386 44.1166 157.918 43.8519C157.45 43.5873 156.927 43.455 156.347 43.455C155.767 43.455 155.242 43.5873 154.771 43.8519C154.299 44.1166 153.929 44.4835 153.661 44.953C153.392 45.4223 153.257 45.9463 153.257 46.5251C153.257 47.1038 153.392 47.628 153.661 48.0973C153.929 48.5666 154.299 48.9337 154.771 49.1982C155.242 49.4629 155.767 49.5953 156.347 49.5953ZM171.031 42.8197V50.2305H170.287V44.3019L167.407 49.2883H167.04L164.16 44.3336V50.2305H163.417V42.8197H164.056L167.239 48.3143L170.392 42.8197H171.031ZM181.043 42.8197V50.2305H180.279V43.4972H175.639V50.2305H174.875V42.8197H181.043ZM190.522 42.8197V50.2305H189.757V43.4972H186.217L186.133 45.9746C186.099 46.998 186.016 47.822 185.887 48.4466C185.758 49.0713 185.561 49.537 185.296 49.8442C185.03 50.1511 184.678 50.3046 184.238 50.3046C184.049 50.3046 183.854 50.2799 183.651 50.2305L183.714 49.5318C183.833 49.56 183.948 49.5742 184.06 49.5742C184.367 49.5742 184.617 49.4507 184.809 49.2037C185.001 48.9565 185.145 48.5737 185.243 48.0548C185.341 47.5361 185.407 46.8498 185.442 45.9957L185.547 42.8197H190.522ZM199.55 49.5529V50.2305H194.366V42.8197H199.393V43.4972H195.141V46.1333H198.932V46.8004H195.141V49.5529H199.55ZM205.069 46.8321H203.394V50.2305H202.64V42.8197H203.394V46.1439H205.069L207.551 42.8197H208.389L205.666 46.4192L208.547 50.2305H207.656L205.069 46.8321ZM214.307 50.294C213.581 50.294 212.926 50.1317 212.343 49.807C211.76 49.4824 211.303 49.0325 210.971 48.4572C210.64 47.882 210.474 47.238 210.474 46.5251C210.474 45.8122 210.64 45.1682 210.971 44.593C211.303 44.0178 211.762 43.5679 212.348 43.2432C212.935 42.9185 213.591 42.7562 214.317 42.7562C214.862 42.7562 215.365 42.8478 215.826 43.0315C216.286 43.2149 216.678 43.4831 216.999 43.836L216.506 44.3336C215.934 43.7478 215.211 43.455 214.338 43.455C213.759 43.455 213.232 43.589 212.757 43.8572C212.282 44.1254 211.91 44.4924 211.641 44.9583C211.373 45.424 211.238 45.9463 211.238 46.5251C211.238 47.1038 211.373 47.6261 211.641 48.092C211.91 48.5577 212.282 48.9248 212.757 49.1929C213.232 49.4612 213.759 49.5953 214.338 49.5953C215.218 49.5953 215.941 49.2989 216.506 48.7061L216.999 49.2037C216.678 49.5565 216.285 49.8265 215.82 50.0135C215.356 50.2005 214.852 50.294 214.307 50.294Z" fill="#0033EB"/>
<defs>
<linearGradient id="paint0_linear" x1="2.69766" y1="26.9642" x2="48.2773" y2="65.9307" gradientUnits="userSpaceOnUse">
<stop stop-color="#2A9CFA"/>
<stop offset="1" stop-color="#0033EB"/>
</linearGradient>
<linearGradient id="paint1_linear" x1="12.7921" y1="11.0989" x2="44.2168" y2="67.3393" gradientUnits="userSpaceOnUse">
<stop stop-color="#0033EB"/>
<stop offset="1" stop-color="#002196"/>
</linearGradient>
<linearGradient id="paint2_linear" x1="11.0365" y1="37.6766" x2="27.5705" y2="57.7095" gradientUnits="userSpaceOnUse">
<stop stop-color="#FFED00"/>
<stop offset="1" stop-color="#F7C545"/>
</linearGradient>
<linearGradient id="paint3_linear" x1="32.0883" y1="4.48047" x2="54.6045" y2="32.6905" gradientUnits="userSpaceOnUse">
<stop stop-color="#0077D9"/>
<stop offset="1" stop-color="#002196"/>
</linearGradient>
<linearGradient id="paint4_linear" x1="23.3779" y1="6.85498" x2="10.8493" y2="20.8784" gradientUnits="userSpaceOnUse">
<stop stop-color="#2A9CFA"/>
<stop offset="1" stop-color="#00EBA1"/>
</linearGradient>
<linearGradient id="paint5_linear" x1="58.1074" y1="25.3512" x2="58.8273" y2="46.6869" gradientUnits="userSpaceOnUse">
<stop stop-color="#00EBA1"/>
<stop offset="1" stop-color="#0033EB"/>
</linearGradient>
<linearGradient id="paint6_linear" x1="41.0653" y1="4.3298" x2="69.4498" y2="37.6071" gradientUnits="userSpaceOnUse">
<stop stop-color="#00D6D6"/>
<stop offset="1" stop-color="#0033EB"/>
</linearGradient>
<linearGradient id="paint7_linear" x1="53.3211" y1="15.7155" x2="66.6529" y2="36.7862" gradientUnits="userSpaceOnUse">
<stop stop-color="#FFD900"/>
<stop offset="1" stop-color="#EF7F1A"/>
</linearGradient>
<linearGradient id="paint8_linear" x1="60.6448" y1="45.8186" x2="68.4783" y2="63.2811" gradientUnits="userSpaceOnUse">
<stop stop-color="#0033EB"/>
<stop offset="1" stop-color="#2A9CFA"/>
</linearGradient>
<linearGradient id="paint9_linear" x1="47.1504" y1="49.3418" x2="59.0323" y2="62.7039" gradientUnits="userSpaceOnUse">
<stop stop-color="#7DC5FF"/>
<stop offset="1" stop-color="#0033EB"/>
</linearGradient>
</defs>
</svg>
