<svg width="103" height="103" viewBox="0 0 103 103" fill="none" xmlns="http://www.w3.org/2000/svg">
<circle cx="51.5" cy="51.5" r="51" fill="white" stroke="#C2C2C2"/>
<path d="M55.1288 39.356C54.604 38.8813 53.7526 38.8813 53.2269 39.356C52.7017 39.8304 52.7017 40.6003 53.2269 41.075L63.4128 50.2815H36.3492C35.6042 50.2815 35 50.8276 35 51.501C35 52.1747 35.6042 52.7204 36.3492 52.7204H63.3993L53.2134 61.9269C52.9607 62.1545 52.8187 62.4642 52.8187 62.7866C52.8187 63.1093 52.9607 63.4182 53.2134 63.6462C53.4661 63.8765 53.8121 64.0041 54.1713 63.9999C54.5292 63.9984 54.8727 63.8716 55.1288 63.6462L67.6082 52.3671C67.8622 52.1372 68.0037 51.8252 67.9999 51.501C67.9974 51.1775 67.8571 50.8681 67.6082 50.6355L55.1288 39.356Z" fill="#0033EB"/>
</svg>
