<svg width="106" height="58" viewBox="0 0 106 58" fill="none" xmlns="http://www.w3.org/2000/svg">
<mask id="path-1-outside-1" maskUnits="userSpaceOnUse" x="-2.22921" y="-3.14766" width="108.913" height="62.0717" fill="black">
<rect fill="white" x="-2.22921" y="-3.14766" width="108.913" height="62.0717"/>
<path d="M5.84488 36.5247C4.08763 37.1463 2.97749 37.2538 2.51447 36.8472C2.05145 36.4406 2.15009 35.738 2.8104 34.7396C3.47071 33.7411 4.60565 32.6448 6.21524 31.4508C6.54626 31.2233 6.89768 30.9943 7.26949 30.7636C7.86136 26.5483 8.5404 22.6584 9.30664 19.094C8.73871 19.4407 8.18098 19.7867 7.63346 20.1319C6.02852 21.1242 4.86747 21.4975 4.15029 21.2519C3.45194 20.9846 3.24697 20.3362 3.53538 19.3065C3.82379 18.2769 4.66371 17.083 6.05513 15.7249C7.75402 14.1009 9.52829 12.6522 11.3779 11.3789C11.5473 10.9225 11.7017 10.5378 11.8413 10.2247C12.4074 9.07254 13.0144 8.17894 13.6622 7.54393C14.3289 6.88729 15.0279 6.64096 15.7592 6.80494C16.5548 7.00413 17.0704 7.42674 17.3059 8.07278C19.9684 6.95699 22.9174 6.22143 26.1529 5.8661C27.4396 5.78498 28.4823 5.99492 29.2812 6.49594C30.08 6.99695 30.5612 7.63374 30.7246 8.40629C30.9068 9.15722 30.707 9.87781 30.125 10.5681C25.9546 11.5609 21.2037 13.2639 15.8725 15.6772C15.1753 19.337 14.5183 23.3761 13.9014 27.7948C15.3025 27.3422 16.7279 26.938 18.1777 26.5822C20.7996 25.9932 22.779 25.8475 24.116 26.1451C25.4514 26.4226 26.2707 26.922 26.5737 27.6433C26.8972 28.363 26.8197 29.074 26.3414 29.7762C25.8834 30.4768 25.1594 30.9265 24.1693 31.1252C20.6311 31.8065 16.9509 32.7708 13.1289 34.0181C12.6704 38.1021 12.3616 41.8722 12.2026 45.3285C12.0624 48.7631 12.1519 51.4647 12.471 53.4333C12.4883 53.6535 12.286 53.9514 11.864 54.327C11.464 54.7209 10.9533 55.0129 10.332 55.2027C9.71069 55.3926 9.07909 55.3215 8.43721 54.9894C7.8173 54.6756 7.2969 53.9312 6.87602 52.756C6.35456 51.0852 6.0824 48.8007 6.05956 45.9026C6.05554 42.9827 6.24364 39.7659 6.62388 36.2519C6.365 36.3529 6.10534 36.4438 5.84488 36.5247Z"/>
<path d="M33.9021 8.4885C34.5592 7.18818 35.2368 6.27895 35.9349 5.76082C36.6534 5.24108 37.2928 5.01958 37.853 5.09632C38.4336 5.17146 38.8644 5.42957 39.1454 5.87065C39.4453 6.2901 39.527 6.80728 39.3907 7.42217C38.7245 9.91139 38.0366 12.9058 37.3268 16.4054C36.6171 19.905 35.9795 23.5399 35.4142 27.3101C34.8489 31.0802 34.4608 34.625 34.25 37.9444C34.0595 41.2621 34.1302 43.9854 34.4619 46.1141C34.4793 46.3343 34.2777 46.6421 33.8573 47.0377C33.4557 47.4117 32.9443 47.6936 32.3229 47.8835C31.7032 48.0934 31.0724 48.0322 30.4305 47.7001C29.8106 47.3864 29.2894 46.632 28.8669 45.4367C28.2073 43.3137 27.9553 40.504 28.1112 37.0077C28.2655 33.4914 28.6739 29.8141 29.3365 25.9759C29.9975 22.1176 30.7473 18.6048 31.5858 15.4374C32.4244 12.2701 33.1965 9.95376 33.9021 8.4885Z"/>
<path d="M41.1537 46.6447C39.8435 46.6874 38.796 46.4174 38.0113 45.8348C37.2265 45.2521 36.6629 44.4808 36.3206 43.521C35.9782 42.5611 35.7943 41.5284 35.7689 40.4227C35.6867 38.3348 35.9606 36.2087 36.5907 34.0445C37.2413 31.8787 38.201 29.8598 39.4699 27.9877C40.7387 26.1157 42.2705 24.5854 44.0653 23.3969C45.0803 22.733 46.1237 22.2985 47.1953 22.0933C48.2858 21.8665 49.3505 21.964 50.3894 22.3857C51.4268 22.7874 52.3936 23.5974 53.2899 24.8157C53.7356 24.7404 54.2463 24.7102 54.8222 24.7253C55.4169 24.7188 55.8892 24.8528 56.2392 25.1273C56.6096 25.4003 56.6812 25.9183 56.4539 26.6813C56.0384 27.9223 55.6325 29.4143 55.236 31.1573C54.838 32.8803 54.6141 34.5997 54.5644 36.3154C54.5351 38.0295 54.8635 39.4637 55.5496 40.618C55.9182 40.0855 56.3393 39.3073 56.8128 38.2832C57.3068 37.2575 57.7812 36.2435 58.2359 35.241C58.515 34.6149 58.7604 34.082 58.9721 33.6424C59.1682 33.2645 59.4254 33.0127 59.7439 32.8869C60.0608 32.7411 60.3433 32.6786 60.5912 32.6994C60.9192 32.6937 61.1757 32.8246 61.361 33.0919C61.5651 33.3377 61.6616 33.6523 61.6508 34.0358C61.6165 34.9045 61.4231 35.9669 61.0704 37.2231C60.7177 38.4793 60.2316 39.736 59.6122 40.9931C58.9928 42.2502 58.2658 43.3143 57.4313 44.1855C56.5952 45.0368 55.6876 45.5009 54.7085 45.578C53.7246 45.595 52.885 45.359 52.1898 44.8699C51.5133 44.3593 50.9592 43.7081 50.5274 42.9164C50.1145 42.1031 49.8334 41.2693 49.6841 40.4151C49.198 41.5408 48.4678 42.565 47.4937 43.4874C46.5399 44.4083 45.4904 45.1555 44.3451 45.729C43.2186 46.2808 42.1548 46.5861 41.1537 46.6447ZM43.3996 32.542C42.9229 33.526 42.5042 34.5961 42.1437 35.7523C41.7831 36.9084 41.5371 37.9549 41.4056 38.8916C41.2944 39.8267 41.3668 40.4856 41.6227 40.8683C41.877 41.2309 42.3815 41.1207 43.1361 40.5377C43.911 39.9531 45.0044 38.7191 46.416 36.8358C47.6206 35.1903 48.4455 33.6754 48.8907 32.2911C49.3548 30.8851 49.5106 29.735 49.3581 28.8408C49.226 27.9449 48.8767 27.4186 48.3102 27.2618C47.7437 27.105 47.0314 27.443 46.1733 28.2758C45.3137 29.0886 44.3891 30.5106 43.3996 32.542Z"/>
<path d="M62.0634 20.8929C63.0362 20.7358 63.7518 20.9615 64.2102 21.5698C64.6686 22.1782 64.9317 23.0436 64.9995 24.166C65.0673 25.2885 65.0237 26.5606 64.8688 27.9825C64.7123 29.3844 64.5284 30.8288 64.317 32.3155C64.1275 33.5589 63.9647 34.7499 63.8285 35.8883C63.6908 37.0068 63.6275 38.0288 63.6388 38.9543C63.6391 40.0015 63.7209 40.6496 63.8842 40.8985C64.0459 41.1275 64.264 41.0298 64.5384 40.6054C64.8129 40.181 65.1202 39.5224 65.4605 38.6297C66.1409 36.8442 66.8589 34.6228 67.6145 31.9654C68.3904 29.3064 69.0855 26.7948 69.6999 24.4305C70.3347 22.0645 70.7602 20.43 70.9765 19.5269C71.0549 19.2186 71.0941 19.0645 71.0941 19.0645C71.6054 18.5208 72.2024 18.1516 72.8849 17.9569C73.5863 17.7406 74.2037 17.7625 74.7373 18.0226C75.2693 18.2626 75.5378 18.8054 75.5428 19.6508C75.4476 21.5715 75.0608 24.0891 74.3823 27.2036C73.7226 30.2965 72.8629 33.3246 71.803 36.2878C71.502 37.1573 71.0206 38.2122 70.3588 39.4525C69.6954 40.6728 68.9112 41.7918 68.0061 42.8095C67.1214 43.8257 66.1864 44.4632 65.2011 44.722C63.723 44.9793 62.3985 44.58 61.2276 43.5243C60.4523 42.7999 59.8792 41.6467 59.5084 40.0648C59.158 38.4813 58.9566 36.7048 58.9042 34.7353C58.8502 32.7458 58.9022 30.7983 59.0601 28.8928C59.2384 26.9857 59.4694 25.3565 59.753 24.005C60.057 22.6519 60.3706 21.8116 60.6937 21.4841C61.0781 21.1517 61.5346 20.9547 62.0634 20.8929Z"/>
<path d="M79.4619 43.6298C78.1517 43.6725 77.1042 43.4025 76.3195 42.8198C75.5347 42.2372 74.9711 41.4659 74.6288 40.506C74.2864 39.5462 74.1025 38.5134 74.0771 37.4078C73.9948 35.3198 74.2688 33.1938 74.8989 31.0296C75.5495 28.8638 76.5092 26.8449 77.7781 24.9728C79.0469 23.1007 80.5787 21.5705 82.3735 20.382C83.3885 19.7181 84.4319 19.2835 85.5035 19.0784C86.594 18.8516 87.6587 18.949 88.6976 19.3707C89.7349 19.7724 90.7018 20.5825 91.5981 21.8008C92.0437 21.7254 92.5545 21.6953 93.1304 21.7104C93.7251 21.7039 94.1974 21.8379 94.5474 22.1124C94.9178 22.3854 94.9894 22.9033 94.7621 23.6664C94.3466 24.9074 93.9407 26.3994 93.5442 28.1424C93.1462 29.8654 92.9223 31.5847 92.8726 33.3004C92.8433 35.0146 93.1717 36.4488 93.8578 37.6031C94.2264 37.0706 94.6474 36.2923 95.121 35.2683C95.615 34.2426 96.0893 33.2285 96.5441 32.2261C96.8232 31.5999 97.0686 31.0671 97.2803 30.6275C97.4764 30.2496 97.7336 29.9977 98.0521 29.872C98.369 29.7262 98.6515 29.6637 98.8994 29.6845C99.2273 29.6788 99.4839 29.8096 99.6692 30.077C99.8732 30.3228 99.9698 30.6374 99.959 31.0209C99.9247 31.8895 99.7312 32.952 99.3786 34.2082C99.0259 35.4644 98.5398 36.7211 97.9204 37.9782C97.301 39.2352 96.574 40.2994 95.7395 41.1706C94.9034 42.0218 93.9958 42.486 93.0166 42.563C92.0328 42.58 91.1932 42.344 90.498 41.855C89.8215 41.3444 89.2674 40.6932 88.8356 39.9015C88.4227 39.0881 88.1416 38.2544 87.9923 37.4002C87.5062 38.5259 86.776 39.55 85.8019 40.4725C84.8481 41.3934 83.7986 42.1406 82.6533 42.7141C81.5268 43.2659 80.463 43.5712 79.4619 43.6298ZM81.7078 29.5271C81.2311 30.5111 80.8124 31.5812 80.4519 32.7374C80.0913 33.8935 79.8453 34.94 79.7138 35.8767C79.6026 36.8118 79.675 37.4707 79.9309 37.8533C80.1852 38.216 80.6897 38.1058 81.4442 37.5228C82.2192 36.9382 83.3125 35.7042 84.7242 33.8209C85.9288 32.1754 86.7537 30.6605 87.1989 29.2762C87.663 27.8702 87.8188 26.7201 87.6663 25.8258C87.5342 24.93 87.1849 24.4037 86.6184 24.2469C86.0519 24.0901 85.3396 24.4281 84.4815 25.2609C83.6219 26.0737 82.6973 27.4957 81.7078 29.5271Z"/>
<path d="M98.7894 39.6316C98.7327 38.9111 98.9295 38.2814 99.3796 37.7425C99.8282 37.1836 100.399 36.8768 101.093 36.8222C101.766 36.7693 102.368 36.9837 102.898 37.4656C103.427 37.9274 103.72 38.5186 103.777 39.2391C103.834 39.9596 103.638 40.5994 103.189 41.1583C102.739 41.6972 102.177 41.9931 101.504 42.0461C100.81 42.1007 100.199 41.8971 99.6703 41.4352C99.1397 40.9534 98.8461 40.3522 98.7894 39.6316Z"/>
</mask>
<path d="M5.84488 36.5247C4.08763 37.1463 2.97749 37.2538 2.51447 36.8472C2.05145 36.4406 2.15009 35.738 2.8104 34.7396C3.47071 33.7411 4.60565 32.6448 6.21524 31.4508C6.54626 31.2233 6.89768 30.9943 7.26949 30.7636C7.86136 26.5483 8.5404 22.6584 9.30664 19.094C8.73871 19.4407 8.18098 19.7867 7.63346 20.1319C6.02852 21.1242 4.86747 21.4975 4.15029 21.2519C3.45194 20.9846 3.24697 20.3362 3.53538 19.3065C3.82379 18.2769 4.66371 17.083 6.05513 15.7249C7.75402 14.1009 9.52829 12.6522 11.3779 11.3789C11.5473 10.9225 11.7017 10.5378 11.8413 10.2247C12.4074 9.07254 13.0144 8.17894 13.6622 7.54393C14.3289 6.88729 15.0279 6.64096 15.7592 6.80494C16.5548 7.00413 17.0704 7.42674 17.3059 8.07278C19.9684 6.95699 22.9174 6.22143 26.1529 5.8661C27.4396 5.78498 28.4823 5.99492 29.2812 6.49594C30.08 6.99695 30.5612 7.63374 30.7246 8.40629C30.9068 9.15722 30.707 9.87781 30.125 10.5681C25.9546 11.5609 21.2037 13.2639 15.8725 15.6772C15.1753 19.337 14.5183 23.3761 13.9014 27.7948C15.3025 27.3422 16.7279 26.938 18.1777 26.5822C20.7996 25.9932 22.779 25.8475 24.116 26.1451C25.4514 26.4226 26.2707 26.922 26.5737 27.6433C26.8972 28.363 26.8197 29.074 26.3414 29.7762C25.8834 30.4768 25.1594 30.9265 24.1693 31.1252C20.6311 31.8065 16.9509 32.7708 13.1289 34.0181C12.6704 38.1021 12.3616 41.8722 12.2026 45.3285C12.0624 48.7631 12.1519 51.4647 12.471 53.4333C12.4883 53.6535 12.286 53.9514 11.864 54.327C11.464 54.7209 10.9533 55.0129 10.332 55.2027C9.71069 55.3926 9.07909 55.3215 8.43721 54.9894C7.8173 54.6756 7.2969 53.9312 6.87602 52.756C6.35456 51.0852 6.0824 48.8007 6.05956 45.9026C6.05554 42.9827 6.24364 39.7659 6.62388 36.2519C6.365 36.3529 6.10534 36.4438 5.84488 36.5247Z" fill="black"/>
<path d="M33.9021 8.4885C34.5592 7.18818 35.2368 6.27895 35.9349 5.76082C36.6534 5.24108 37.2928 5.01958 37.853 5.09632C38.4336 5.17146 38.8644 5.42957 39.1454 5.87065C39.4453 6.2901 39.527 6.80728 39.3907 7.42217C38.7245 9.91139 38.0366 12.9058 37.3268 16.4054C36.6171 19.905 35.9795 23.5399 35.4142 27.3101C34.8489 31.0802 34.4608 34.625 34.25 37.9444C34.0595 41.2621 34.1302 43.9854 34.4619 46.1141C34.4793 46.3343 34.2777 46.6421 33.8573 47.0377C33.4557 47.4117 32.9443 47.6936 32.3229 47.8835C31.7032 48.0934 31.0724 48.0322 30.4305 47.7001C29.8106 47.3864 29.2894 46.632 28.8669 45.4367C28.2073 43.3137 27.9553 40.504 28.1112 37.0077C28.2655 33.4914 28.6739 29.8141 29.3365 25.9759C29.9975 22.1176 30.7473 18.6048 31.5858 15.4374C32.4244 12.2701 33.1965 9.95376 33.9021 8.4885Z" fill="black"/>
<path d="M41.1537 46.6447C39.8435 46.6874 38.796 46.4174 38.0113 45.8348C37.2265 45.2521 36.6629 44.4808 36.3206 43.521C35.9782 42.5611 35.7943 41.5284 35.7689 40.4227C35.6867 38.3348 35.9606 36.2087 36.5907 34.0445C37.2413 31.8787 38.201 29.8598 39.4699 27.9877C40.7387 26.1157 42.2705 24.5854 44.0653 23.3969C45.0803 22.733 46.1237 22.2985 47.1953 22.0933C48.2858 21.8665 49.3505 21.964 50.3894 22.3857C51.4268 22.7874 52.3936 23.5974 53.2899 24.8157C53.7356 24.7404 54.2463 24.7102 54.8222 24.7253C55.4169 24.7188 55.8892 24.8528 56.2392 25.1273C56.6096 25.4003 56.6812 25.9183 56.4539 26.6813C56.0384 27.9223 55.6325 29.4143 55.236 31.1573C54.838 32.8803 54.6141 34.5997 54.5644 36.3154C54.5351 38.0295 54.8635 39.4637 55.5496 40.618C55.9182 40.0855 56.3393 39.3073 56.8128 38.2832C57.3068 37.2575 57.7812 36.2435 58.2359 35.241C58.515 34.6149 58.7604 34.082 58.9721 33.6424C59.1682 33.2645 59.4254 33.0127 59.7439 32.8869C60.0608 32.7411 60.3433 32.6786 60.5912 32.6994C60.9192 32.6937 61.1757 32.8246 61.361 33.0919C61.5651 33.3377 61.6616 33.6523 61.6508 34.0358C61.6165 34.9045 61.4231 35.9669 61.0704 37.2231C60.7177 38.4793 60.2316 39.736 59.6122 40.9931C58.9928 42.2502 58.2658 43.3143 57.4313 44.1855C56.5952 45.0368 55.6876 45.5009 54.7085 45.578C53.7246 45.595 52.885 45.359 52.1898 44.8699C51.5133 44.3593 50.9592 43.7081 50.5274 42.9164C50.1145 42.1031 49.8334 41.2693 49.6841 40.4151C49.198 41.5408 48.4678 42.565 47.4937 43.4874C46.5399 44.4083 45.4904 45.1555 44.3451 45.729C43.2186 46.2808 42.1548 46.5861 41.1537 46.6447ZM43.3996 32.542C42.9229 33.526 42.5042 34.5961 42.1437 35.7523C41.7831 36.9084 41.5371 37.9549 41.4056 38.8916C41.2944 39.8267 41.3668 40.4856 41.6227 40.8683C41.877 41.2309 42.3815 41.1207 43.1361 40.5377C43.911 39.9531 45.0044 38.7191 46.416 36.8358C47.6206 35.1903 48.4455 33.6754 48.8907 32.2911C49.3548 30.8851 49.5106 29.735 49.3581 28.8408C49.226 27.9449 48.8767 27.4186 48.3102 27.2618C47.7437 27.105 47.0314 27.443 46.1733 28.2758C45.3137 29.0886 44.3891 30.5106 43.3996 32.542Z" fill="black"/>
<path d="M62.0634 20.8929C63.0362 20.7358 63.7518 20.9615 64.2102 21.5698C64.6686 22.1782 64.9317 23.0436 64.9995 24.166C65.0673 25.2885 65.0237 26.5606 64.8688 27.9825C64.7123 29.3844 64.5284 30.8288 64.317 32.3155C64.1275 33.5589 63.9647 34.7499 63.8285 35.8883C63.6908 37.0068 63.6275 38.0288 63.6388 38.9543C63.6391 40.0015 63.7209 40.6496 63.8842 40.8985C64.0459 41.1275 64.264 41.0298 64.5384 40.6054C64.8129 40.181 65.1202 39.5224 65.4605 38.6297C66.1409 36.8442 66.8589 34.6228 67.6145 31.9654C68.3904 29.3064 69.0855 26.7948 69.6999 24.4305C70.3347 22.0645 70.7602 20.43 70.9765 19.5269C71.0549 19.2186 71.0941 19.0645 71.0941 19.0645C71.6054 18.5208 72.2024 18.1516 72.8849 17.9569C73.5863 17.7406 74.2037 17.7625 74.7373 18.0226C75.2693 18.2626 75.5378 18.8054 75.5428 19.6508C75.4476 21.5715 75.0608 24.0891 74.3823 27.2036C73.7226 30.2965 72.8629 33.3246 71.803 36.2878C71.502 37.1573 71.0206 38.2122 70.3588 39.4525C69.6954 40.6728 68.9112 41.7918 68.0061 42.8095C67.1214 43.8257 66.1864 44.4632 65.2011 44.722C63.723 44.9793 62.3985 44.58 61.2276 43.5243C60.4523 42.7999 59.8792 41.6467 59.5084 40.0648C59.158 38.4813 58.9566 36.7048 58.9042 34.7353C58.8502 32.7458 58.9022 30.7983 59.0601 28.8928C59.2384 26.9857 59.4694 25.3565 59.753 24.005C60.057 22.6519 60.3706 21.8116 60.6937 21.4841C61.0781 21.1517 61.5346 20.9547 62.0634 20.8929Z" fill="black"/>
<path d="M79.4619 43.6298C78.1517 43.6725 77.1042 43.4025 76.3195 42.8198C75.5347 42.2372 74.9711 41.4659 74.6288 40.506C74.2864 39.5462 74.1025 38.5134 74.0771 37.4078C73.9948 35.3198 74.2688 33.1938 74.8989 31.0296C75.5495 28.8638 76.5092 26.8449 77.7781 24.9728C79.0469 23.1007 80.5787 21.5705 82.3735 20.382C83.3885 19.7181 84.4319 19.2835 85.5035 19.0784C86.594 18.8516 87.6587 18.949 88.6976 19.3707C89.7349 19.7724 90.7018 20.5825 91.5981 21.8008C92.0437 21.7254 92.5545 21.6953 93.1304 21.7104C93.7251 21.7039 94.1974 21.8379 94.5474 22.1124C94.9178 22.3854 94.9894 22.9033 94.7621 23.6664C94.3466 24.9074 93.9407 26.3994 93.5442 28.1424C93.1462 29.8654 92.9223 31.5847 92.8726 33.3004C92.8433 35.0146 93.1717 36.4488 93.8578 37.6031C94.2264 37.0706 94.6474 36.2923 95.121 35.2683C95.615 34.2426 96.0893 33.2285 96.5441 32.2261C96.8232 31.5999 97.0686 31.0671 97.2803 30.6275C97.4764 30.2496 97.7336 29.9977 98.0521 29.872C98.369 29.7262 98.6515 29.6637 98.8994 29.6845C99.2273 29.6788 99.4839 29.8096 99.6692 30.077C99.8732 30.3228 99.9698 30.6374 99.959 31.0209C99.9247 31.8895 99.7312 32.952 99.3786 34.2082C99.0259 35.4644 98.5398 36.7211 97.9204 37.9782C97.301 39.2352 96.574 40.2994 95.7395 41.1706C94.9034 42.0218 93.9958 42.486 93.0166 42.563C92.0328 42.58 91.1932 42.344 90.498 41.855C89.8215 41.3444 89.2674 40.6932 88.8356 39.9015C88.4227 39.0881 88.1416 38.2544 87.9923 37.4002C87.5062 38.5259 86.776 39.55 85.8019 40.4725C84.8481 41.3934 83.7986 42.1406 82.6533 42.7141C81.5268 43.2659 80.463 43.5712 79.4619 43.6298ZM81.7078 29.5271C81.2311 30.5111 80.8124 31.5812 80.4519 32.7374C80.0913 33.8935 79.8453 34.94 79.7138 35.8767C79.6026 36.8118 79.675 37.4707 79.9309 37.8533C80.1852 38.216 80.6897 38.1058 81.4442 37.5228C82.2192 36.9382 83.3125 35.7042 84.7242 33.8209C85.9288 32.1754 86.7537 30.6605 87.1989 29.2762C87.663 27.8702 87.8188 26.7201 87.6663 25.8258C87.5342 24.93 87.1849 24.4037 86.6184 24.2469C86.0519 24.0901 85.3396 24.4281 84.4815 25.2609C83.6219 26.0737 82.6973 27.4957 81.7078 29.5271Z" fill="black"/>
<path d="M98.7894 39.6316C98.7327 38.9111 98.9295 38.2814 99.3796 37.7425C99.8282 37.1836 100.399 36.8768 101.093 36.8222C101.766 36.7693 102.368 36.9837 102.898 37.4656C103.427 37.9274 103.72 38.5186 103.777 39.2391C103.834 39.9596 103.638 40.5994 103.189 41.1583C102.739 41.6972 102.177 41.9931 101.504 42.0461C100.81 42.1007 100.199 41.8971 99.6703 41.4352C99.1397 40.9534 98.8461 40.3522 98.7894 39.6316Z" fill="black"/>
<path d="M5.84488 36.5247C4.08763 37.1463 2.97749 37.2538 2.51447 36.8472C2.05145 36.4406 2.15009 35.738 2.8104 34.7396C3.47071 33.7411 4.60565 32.6448 6.21524 31.4508C6.54626 31.2233 6.89768 30.9943 7.26949 30.7636C7.86136 26.5483 8.5404 22.6584 9.30664 19.094C8.73871 19.4407 8.18098 19.7867 7.63346 20.1319C6.02852 21.1242 4.86747 21.4975 4.15029 21.2519C3.45194 20.9846 3.24697 20.3362 3.53538 19.3065C3.82379 18.2769 4.66371 17.083 6.05513 15.7249C7.75402 14.1009 9.52829 12.6522 11.3779 11.3789C11.5473 10.9225 11.7017 10.5378 11.8413 10.2247C12.4074 9.07254 13.0144 8.17894 13.6622 7.54393C14.3289 6.88729 15.0279 6.64096 15.7592 6.80494C16.5548 7.00413 17.0704 7.42674 17.3059 8.07278C19.9684 6.95699 22.9174 6.22143 26.1529 5.8661C27.4396 5.78498 28.4823 5.99492 29.2812 6.49594C30.08 6.99695 30.5612 7.63374 30.7246 8.40629C30.9068 9.15722 30.707 9.87781 30.125 10.5681C25.9546 11.5609 21.2037 13.2639 15.8725 15.6772C15.1753 19.337 14.5183 23.3761 13.9014 27.7948C15.3025 27.3422 16.7279 26.938 18.1777 26.5822C20.7996 25.9932 22.779 25.8475 24.116 26.1451C25.4514 26.4226 26.2707 26.922 26.5737 27.6433C26.8972 28.363 26.8197 29.074 26.3414 29.7762C25.8834 30.4768 25.1594 30.9265 24.1693 31.1252C20.6311 31.8065 16.9509 32.7708 13.1289 34.0181C12.6704 38.1021 12.3616 41.8722 12.2026 45.3285C12.0624 48.7631 12.1519 51.4647 12.471 53.4333C12.4883 53.6535 12.286 53.9514 11.864 54.327C11.464 54.7209 10.9533 55.0129 10.332 55.2027C9.71069 55.3926 9.07909 55.3215 8.43721 54.9894C7.8173 54.6756 7.2969 53.9312 6.87602 52.756C6.35456 51.0852 6.0824 48.8007 6.05956 45.9026C6.05554 42.9827 6.24364 39.7659 6.62388 36.2519C6.365 36.3529 6.10534 36.4438 5.84488 36.5247Z" stroke="white" stroke-width="4" mask="url(#path-1-outside-1)"/>
<path d="M33.9021 8.4885C34.5592 7.18818 35.2368 6.27895 35.9349 5.76082C36.6534 5.24108 37.2928 5.01958 37.853 5.09632C38.4336 5.17146 38.8644 5.42957 39.1454 5.87065C39.4453 6.2901 39.527 6.80728 39.3907 7.42217C38.7245 9.91139 38.0366 12.9058 37.3268 16.4054C36.6171 19.905 35.9795 23.5399 35.4142 27.3101C34.8489 31.0802 34.4608 34.625 34.25 37.9444C34.0595 41.2621 34.1302 43.9854 34.4619 46.1141C34.4793 46.3343 34.2777 46.6421 33.8573 47.0377C33.4557 47.4117 32.9443 47.6936 32.3229 47.8835C31.7032 48.0934 31.0724 48.0322 30.4305 47.7001C29.8106 47.3864 29.2894 46.632 28.8669 45.4367C28.2073 43.3137 27.9553 40.504 28.1112 37.0077C28.2655 33.4914 28.6739 29.8141 29.3365 25.9759C29.9975 22.1176 30.7473 18.6048 31.5858 15.4374C32.4244 12.2701 33.1965 9.95376 33.9021 8.4885Z" stroke="white" stroke-width="4" mask="url(#path-1-outside-1)"/>
<path d="M41.1537 46.6447C39.8435 46.6874 38.796 46.4174 38.0113 45.8348C37.2265 45.2521 36.6629 44.4808 36.3206 43.521C35.9782 42.5611 35.7943 41.5284 35.7689 40.4227C35.6867 38.3348 35.9606 36.2087 36.5907 34.0445C37.2413 31.8787 38.201 29.8598 39.4699 27.9877C40.7387 26.1157 42.2705 24.5854 44.0653 23.3969C45.0803 22.733 46.1237 22.2985 47.1953 22.0933C48.2858 21.8665 49.3505 21.964 50.3894 22.3857C51.4268 22.7874 52.3936 23.5974 53.2899 24.8157C53.7356 24.7404 54.2463 24.7102 54.8222 24.7253C55.4169 24.7188 55.8892 24.8528 56.2392 25.1273C56.6096 25.4003 56.6812 25.9183 56.4539 26.6813C56.0384 27.9223 55.6325 29.4143 55.236 31.1573C54.838 32.8803 54.6141 34.5997 54.5644 36.3154C54.5351 38.0295 54.8635 39.4637 55.5496 40.618C55.9182 40.0855 56.3393 39.3073 56.8128 38.2832C57.3068 37.2575 57.7812 36.2435 58.2359 35.241C58.515 34.6149 58.7604 34.082 58.9721 33.6424C59.1682 33.2645 59.4254 33.0127 59.7439 32.8869C60.0608 32.7411 60.3433 32.6786 60.5912 32.6994C60.9192 32.6937 61.1757 32.8246 61.361 33.0919C61.5651 33.3377 61.6616 33.6523 61.6508 34.0358C61.6165 34.9045 61.4231 35.9669 61.0704 37.2231C60.7177 38.4793 60.2316 39.736 59.6122 40.9931C58.9928 42.2502 58.2658 43.3143 57.4313 44.1855C56.5952 45.0368 55.6876 45.5009 54.7085 45.578C53.7246 45.595 52.885 45.359 52.1898 44.8699C51.5133 44.3593 50.9592 43.7081 50.5274 42.9164C50.1145 42.1031 49.8334 41.2693 49.6841 40.4151C49.198 41.5408 48.4678 42.565 47.4937 43.4874C46.5399 44.4083 45.4904 45.1555 44.3451 45.729C43.2186 46.2808 42.1548 46.5861 41.1537 46.6447ZM43.3996 32.542C42.9229 33.526 42.5042 34.5961 42.1437 35.7523C41.7831 36.9084 41.5371 37.9549 41.4056 38.8916C41.2944 39.8267 41.3668 40.4856 41.6227 40.8683C41.877 41.2309 42.3815 41.1207 43.1361 40.5377C43.911 39.9531 45.0044 38.7191 46.416 36.8358C47.6206 35.1903 48.4455 33.6754 48.8907 32.2911C49.3548 30.8851 49.5106 29.735 49.3581 28.8408C49.226 27.9449 48.8767 27.4186 48.3102 27.2618C47.7437 27.105 47.0314 27.443 46.1733 28.2758C45.3137 29.0886 44.3891 30.5106 43.3996 32.542Z" stroke="white" stroke-width="4" mask="url(#path-1-outside-1)"/>
<path d="M62.0634 20.8929C63.0362 20.7358 63.7518 20.9615 64.2102 21.5698C64.6686 22.1782 64.9317 23.0436 64.9995 24.166C65.0673 25.2885 65.0237 26.5606 64.8688 27.9825C64.7123 29.3844 64.5284 30.8288 64.317 32.3155C64.1275 33.5589 63.9647 34.7499 63.8285 35.8883C63.6908 37.0068 63.6275 38.0288 63.6388 38.9543C63.6391 40.0015 63.7209 40.6496 63.8842 40.8985C64.0459 41.1275 64.264 41.0298 64.5384 40.6054C64.8129 40.181 65.1202 39.5224 65.4605 38.6297C66.1409 36.8442 66.8589 34.6228 67.6145 31.9654C68.3904 29.3064 69.0855 26.7948 69.6999 24.4305C70.3347 22.0645 70.7602 20.43 70.9765 19.5269C71.0549 19.2186 71.0941 19.0645 71.0941 19.0645C71.6054 18.5208 72.2024 18.1516 72.8849 17.9569C73.5863 17.7406 74.2037 17.7625 74.7373 18.0226C75.2693 18.2626 75.5378 18.8054 75.5428 19.6508C75.4476 21.5715 75.0608 24.0891 74.3823 27.2036C73.7226 30.2965 72.8629 33.3246 71.803 36.2878C71.502 37.1573 71.0206 38.2122 70.3588 39.4525C69.6954 40.6728 68.9112 41.7918 68.0061 42.8095C67.1214 43.8257 66.1864 44.4632 65.2011 44.722C63.723 44.9793 62.3985 44.58 61.2276 43.5243C60.4523 42.7999 59.8792 41.6467 59.5084 40.0648C59.158 38.4813 58.9566 36.7048 58.9042 34.7353C58.8502 32.7458 58.9022 30.7983 59.0601 28.8928C59.2384 26.9857 59.4694 25.3565 59.753 24.005C60.057 22.6519 60.3706 21.8116 60.6937 21.4841C61.0781 21.1517 61.5346 20.9547 62.0634 20.8929Z" stroke="white" stroke-width="4" mask="url(#path-1-outside-1)"/>
<path d="M79.4619 43.6298C78.1517 43.6725 77.1042 43.4025 76.3195 42.8198C75.5347 42.2372 74.9711 41.4659 74.6288 40.506C74.2864 39.5462 74.1025 38.5134 74.0771 37.4078C73.9948 35.3198 74.2688 33.1938 74.8989 31.0296C75.5495 28.8638 76.5092 26.8449 77.7781 24.9728C79.0469 23.1007 80.5787 21.5705 82.3735 20.382C83.3885 19.7181 84.4319 19.2835 85.5035 19.0784C86.594 18.8516 87.6587 18.949 88.6976 19.3707C89.7349 19.7724 90.7018 20.5825 91.5981 21.8008C92.0437 21.7254 92.5545 21.6953 93.1304 21.7104C93.7251 21.7039 94.1974 21.8379 94.5474 22.1124C94.9178 22.3854 94.9894 22.9033 94.7621 23.6664C94.3466 24.9074 93.9407 26.3994 93.5442 28.1424C93.1462 29.8654 92.9223 31.5847 92.8726 33.3004C92.8433 35.0146 93.1717 36.4488 93.8578 37.6031C94.2264 37.0706 94.6474 36.2923 95.121 35.2683C95.615 34.2426 96.0893 33.2285 96.5441 32.2261C96.8232 31.5999 97.0686 31.0671 97.2803 30.6275C97.4764 30.2496 97.7336 29.9977 98.0521 29.872C98.369 29.7262 98.6515 29.6637 98.8994 29.6845C99.2273 29.6788 99.4839 29.8096 99.6692 30.077C99.8732 30.3228 99.9698 30.6374 99.959 31.0209C99.9247 31.8895 99.7312 32.952 99.3786 34.2082C99.0259 35.4644 98.5398 36.7211 97.9204 37.9782C97.301 39.2352 96.574 40.2994 95.7395 41.1706C94.9034 42.0218 93.9958 42.486 93.0166 42.563C92.0328 42.58 91.1932 42.344 90.498 41.855C89.8215 41.3444 89.2674 40.6932 88.8356 39.9015C88.4227 39.0881 88.1416 38.2544 87.9923 37.4002C87.5062 38.5259 86.776 39.55 85.8019 40.4725C84.8481 41.3934 83.7986 42.1406 82.6533 42.7141C81.5268 43.2659 80.463 43.5712 79.4619 43.6298ZM81.7078 29.5271C81.2311 30.5111 80.8124 31.5812 80.4519 32.7374C80.0913 33.8935 79.8453 34.94 79.7138 35.8767C79.6026 36.8118 79.675 37.4707 79.9309 37.8533C80.1852 38.216 80.6897 38.1058 81.4442 37.5228C82.2192 36.9382 83.3125 35.7042 84.7242 33.8209C85.9288 32.1754 86.7537 30.6605 87.1989 29.2762C87.663 27.8702 87.8188 26.7201 87.6663 25.8258C87.5342 24.93 87.1849 24.4037 86.6184 24.2469C86.0519 24.0901 85.3396 24.4281 84.4815 25.2609C83.6219 26.0737 82.6973 27.4957 81.7078 29.5271Z" stroke="white" stroke-width="4" mask="url(#path-1-outside-1)"/>
<path d="M98.7894 39.6316C98.7327 38.9111 98.9295 38.2814 99.3796 37.7425C99.8282 37.1836 100.399 36.8768 101.093 36.8222C101.766 36.7693 102.368 36.9837 102.898 37.4656C103.427 37.9274 103.72 38.5186 103.777 39.2391C103.834 39.9596 103.638 40.5994 103.189 41.1583C102.739 41.6972 102.177 41.9931 101.504 42.0461C100.81 42.1007 100.199 41.8971 99.6703 41.4352C99.1397 40.9534 98.8461 40.3522 98.7894 39.6316Z" stroke="white" stroke-width="4" mask="url(#path-1-outside-1)"/>
</svg>
