<svg width="15" height="15" viewBox="0 0 15 15" fill="none" xmlns="http://www.w3.org/2000/svg"><path d="M3.953 7.989h1.644v6.77c0 .133.108.241.242.241h2.788a.242.242 0 00.242-.242V8.021h1.89a.242.242 0 00.24-.214l.287-2.492a.242.242 0 00-.24-.27H8.87V3.483c0-.471.254-.71.754-.71h1.423a.242.242 0 00.242-.242V.244a.242.242 0 00-.242-.242H9.084C9.07.002 9.04 0 8.994 0c-.34 0-1.523.067-2.458.927-1.035.952-.891 2.093-.857 2.291v1.827H3.953a.242.242 0 00-.242.242v2.46c0 .134.108.242.242.242z" fill="#FBBA29"/></svg>