<svg width="54" height="54" viewBox="0 0 54 54" fill="none" xmlns="http://www.w3.org/2000/svg">
<circle cx="27.5" cy="26.5" r="26" stroke="#C2C2C2"/>
<mask id="path-2-inside-1" fill="white">
<path d="M54 27C54 23.4543 53.3016 19.9433 51.9447 16.6675C50.5879 13.3918 48.5991 10.4153 46.0919 7.90812C43.5847 5.40093 40.6082 3.41213 37.3325 2.05525C34.0567 0.698375 30.5457 -1.54987e-07 27 0V1.58232C30.3379 1.58232 33.6431 2.23976 36.7269 3.51712C39.8107 4.79448 42.6128 6.66673 44.973 9.02698C47.3333 11.3872 49.2055 14.1893 50.4829 17.2731C51.7602 20.3569 52.4177 23.6621 52.4177 27H54Z"/>
</mask>
<path d="M54 27C54 23.4543 53.3016 19.9433 51.9447 16.6675C50.5879 13.3918 48.5991 10.4153 46.0919 7.90812C43.5847 5.40093 40.6082 3.41213 37.3325 2.05525C34.0567 0.698375 30.5457 -1.54987e-07 27 0V1.58232C30.3379 1.58232 33.6431 2.23976 36.7269 3.51712C39.8107 4.79448 42.6128 6.66673 44.973 9.02698C47.3333 11.3872 49.2055 14.1893 50.4829 17.2731C51.7602 20.3569 52.4177 23.6621 52.4177 27H54Z" stroke="#0033EB" stroke-width="4" mask="url(#path-2-inside-1)"/>
<path d="M29.3694 20.1851C29.099 19.9383 28.6604 19.9383 28.3896 20.1851C28.119 20.4318 28.119 20.8322 28.3896 21.079L33.6369 25.8664H19.695C19.3113 25.8664 19 26.1504 19 26.5005C19 26.8508 19.3113 27.1346 19.695 27.1346H33.6299L28.3827 31.922C28.2525 32.0403 28.1793 32.2014 28.1793 32.369C28.1793 32.5368 28.2525 32.6975 28.3827 32.816C28.5128 32.9358 28.6911 33.0021 28.8761 32.9999C29.0605 32.9992 29.2375 32.9332 29.3694 32.816L35.7982 26.9509C35.929 26.8314 36.0019 26.6691 36 26.5005C35.9987 26.3323 35.9264 26.1714 35.7982 26.0505L29.3694 20.1851Z" fill="#0033EB"/>
</svg>
