<svg width="103" height="103" viewBox="0 0 103 103" fill="none" xmlns="http://www.w3.org/2000/svg"><circle cx="51.5" cy="51.5" r="51" fill="#fff" stroke="#C2C2C2"/><path d="M55.129 39.356a1.448 1.448 0 00-1.902 0 1.135 1.135 0 000 1.719l10.186 9.206H36.349c-.745 0-1.349.547-1.349 1.22 0 .674.604 1.22 1.35 1.22H63.4l-10.187 9.206a1.158 1.158 0 00-.394.86c0 .322.142.631.394.86.253.23.6.357.958.353.358-.002.702-.128.958-.354l12.48-11.279a1.15 1.15 0 00.39-.866 1.197 1.197 0 00-.39-.865l-12.48-11.28z" fill="#0033EB"/></svg>