<svg width="46" height="46" viewBox="0 0 46 46" fill="none" xmlns="http://www.w3.org/2000/svg"><g clip-path="url(#clip0)"><path fill="#fff" d="M0 0h46v46H0z"/><path d="M42.646 46H3.354A3.358 3.358 0 010 42.646v-4.792A3.358 3.358 0 013.354 34.5h39.292A3.358 3.358 0 0146 37.854v4.792A3.358 3.358 0 0142.646 46zM3.354 37.375a.48.48 0 00-.479.48v4.79c0 .265.215.48.48.48h39.29a.48.48 0 00.48-.48v-4.79a.48.48 0 00-.48-.48H3.356z" fill="#0033EB"/><path d="M34.98 36.896a1.438 1.438 0 01-1.438-1.438v-8.625c0-5.813-4.73-10.541-10.541-10.541-5.812 0-10.542 4.728-10.542 10.541v8.625a1.438 1.438 0 01-2.875 0v-8.625c0-7.398 6.02-13.416 13.417-13.416 7.396 0 13.416 6.018 13.416 13.416v8.625c0 .794-.644 1.438-1.437 1.438z" fill="#0033EB"/><path d="M16.771 28.27a1.438 1.438 0 01-1.437-1.437c0-4.228 3.439-7.666 7.667-7.666a1.438 1.438 0 010 2.875 4.797 4.797 0 00-4.792 4.791c0 .794-.644 1.438-1.438 1.438zM23 9.583a1.438 1.438 0 01-1.438-1.437V1.437a1.438 1.438 0 012.875 0v6.709c0 .793-.643 1.437-1.437 1.437zm11.021 3.834a1.438 1.438 0 01-1.016-2.455l4.744-4.744a1.438 1.438 0 112.033 2.033l-4.745 4.744c-.28.282-.648.422-1.016.422zm-22.041 0c-.368 0-.736-.14-1.016-.422L6.22 8.251a1.438 1.438 0 112.034-2.033l4.741 4.745a1.438 1.438 0 01-1.015 2.454zM4.313 24.438H1.438a1.438 1.438 0 010-2.875h2.875a1.438 1.438 0 010 2.875zm40.25 0h-2.876a1.438 1.438 0 010-2.875h2.876a1.438 1.438 0 010 2.875z" fill="#0033EB"/></g><defs><clipPath id="clip0"><path fill="#fff" d="M0 0h46v46H0z"/></clipPath></defs></svg>