<svg width="46" height="46" viewBox="0 0 46 46" fill="none" xmlns="http://www.w3.org/2000/svg"><path d="M23 28.48a1.35 1.35 0 01-.525-2.59c.604-.255 1.326-.037 1.982.599a1.348 1.348 0 001.876-1.936c-.609-.59-1.285-1.006-1.985-1.24v-1.57a1.348 1.348 0 10-2.695 0v1.578a4.037 4.037 0 00-2.695 3.812A4.048 4.048 0 0023 31.176a1.35 1.35 0 01.461 2.615c-.692.252-1.498-.09-2.21-.939a1.347 1.347 0 10-2.064 1.734c.728.867 1.576 1.462 2.466 1.761v1.567a1.348 1.348 0 002.695 0v-1.579l.036-.012a4.056 4.056 0 002.66-3.8A4.047 4.047 0 0023 28.48z" fill="#0033EB"/><path d="M35.481 20.238c-1.602-1.97-3.433-3.54-5.443-4.67.33-.389.59-.845.757-1.354.658-2.005-.303-4.386-2.757-5.161l3.44-5.999a1.348 1.348 0 00-.793-1.964A27.516 27.516 0 0023 0a27.52 27.52 0 00-7.685 1.09 1.348 1.348 0 00-.793 1.964l3.44 5.999c-2.444.771-3.418 3.149-2.757 5.162.168.507.427.964.758 1.353-2.01 1.13-3.842 2.7-5.444 4.67-3.202 3.94-5.039 8.909-5.039 13.633C5.48 43.672 13.301 46 23 46c9.706 0 17.52-2.332 17.52-12.129 0-4.725-1.837-9.694-5.039-13.633zM17.744 3.254c1.72-.371 3.48-.559 5.256-.559 1.776 0 3.537.188 5.256.559l-2.968 5.175a16.53 16.53 0 00-4.576 0l-2.968-5.175zm.88 8.416c2.32-.76 4.746-.905 7.105-.433l.009.002c.55.11 1.096.253 1.636.43.706.233 1.092.997.86 1.702a1.343 1.343 0 01-1.135.92A13.668 13.668 0 0023 13.656c-1.382 0-2.75.213-4.091.632a1.34 1.34 0 01-1.143-.915 1.351 1.351 0 01.858-1.703zM23 43.323c-10.53 0-14.824-2.751-14.824-9.452 0-4.056 1.658-8.517 4.434-11.933 2.929-3.602 6.619-5.586 10.39-5.586 4.151 0 7.782 2.379 10.39 5.586 2.776 3.417 4.434 7.877 4.434 11.933 0 6.7-4.295 9.452-14.824 9.452z" fill="#0033EB"/></svg>