<svg width="46" height="46" viewBox="0 0 46 46" fill="none" xmlns="http://www.w3.org/2000/svg"><path fill="#fff" d="M0 0h46v46H0z"/><path d="M34.824 5.919a4.539 4.539 0 00-4.539-4.539H14.567a4.539 4.539 0 00-4.54 4.539v34.047a4.539 4.539 0 004.54 4.539h15.718a4.539 4.539 0 004.54-4.539V5.92zM12.184 9.25h20.484v25.12H12.184V9.25zm2.36-5.714h15.763c1.314 0 2.361 1.095 2.361 2.41v1.148H12.184V5.945c0-1.314 1.047-2.409 2.36-2.409zM30.308 42.35H14.545a2.345 2.345 0 01-2.361-2.329v-3.493h20.484v3.465a2.345 2.345 0 01-2.333 2.357h-.028z" fill="#0033EB"/><path d="M24.534 38.36h-4.22a1.078 1.078 0 100 2.156h4.22a1.078 1.078 0 100-2.156z" fill="#0033EB"/></svg>