<svg width="46" height="46" viewBox="0 0 46 46" fill="none" xmlns="http://www.w3.org/2000/svg"><g clip-path="url(#clip0)" fill="#0033EB"><path d="M42.54 12.48l-.002-.035c-.02-.442-.033-.91-.041-1.43-.038-2.536-2.054-4.634-4.59-4.775-5.29-.296-9.38-2.02-12.876-5.428L25 .784a2.944 2.944 0 00-4.001 0l-.03.028C17.474 4.22 13.383 5.944 8.094 6.24c-2.536.141-4.553 2.24-4.59 4.776-.008.517-.022.984-.042 1.429l-.002.083c-.103 5.393-.23 12.105 2.015 18.197 1.234 3.35 3.104 6.263 5.557 8.657 2.794 2.726 6.453 4.89 10.875 6.432A3.357 3.357 0 0023 46a3.304 3.304 0 001.095-.187c4.417-1.544 8.072-3.71 10.864-6.436 2.451-2.394 4.321-5.307 5.557-8.658 2.254-6.11 2.126-12.835 2.024-18.238zm-4.557 17.305c-2.368 6.421-7.202 10.83-14.779 13.48a.605.605 0 01-.408 0c-7.584-2.644-12.422-7.051-14.788-13.473-2.07-5.615-1.953-11.777-1.85-17.212l.002-.03c.02-.468.035-.957.042-1.494a2.167 2.167 0 012.043-2.121c2.992-.167 5.622-.746 8.038-1.768 2.412-1.022 4.555-2.461 6.55-4.401a.249.249 0 01.334 0c1.995 1.94 4.138 3.38 6.55 4.4 2.417 1.023 5.046 1.602 8.04 1.769a2.166 2.166 0 012.041 2.121c.008.54.022 1.03.043 1.494.103 5.441.218 11.608-1.858 17.235z"/><path d="M22.999 11.537c-6.321 0-11.464 5.143-11.464 11.464 0 6.321 5.143 11.464 11.464 11.464 6.321 0 11.464-5.143 11.464-11.464 0-6.321-5.143-11.464-11.464-11.464zm0 20.228c-4.833 0-8.765-3.931-8.765-8.764 0-4.833 3.932-8.765 8.765-8.765s8.764 3.932 8.764 8.765-3.931 8.764-8.764 8.764z"/><path d="M26.294 19.442l-5.324 5.324-1.445-1.445a1.35 1.35 0 10-1.91 1.909l2.4 2.4a1.35 1.35 0 001.909-.001l6.28-6.279a1.35 1.35 0 00-1.91-1.908z"/></g><defs><clipPath id="clip0"><path fill="#fff" d="M0 0h46v46H0z"/></clipPath></defs></svg>